<?xml version="1.0" encoding="UTF-8" standalone="no"?>
<svg
   xmlns:dc="http://purl.org/dc/elements/1.1/"
   xmlns:cc="http://creativecommons.org/ns#"
   xmlns:rdf="http://www.w3.org/1999/02/22-rdf-syntax-ns#"
   xmlns:svg="http://www.w3.org/2000/svg"
   xmlns="http://www.w3.org/2000/svg"
   viewBox="0 0 566.92932 188.976"
   height="188.976"
   width="566.92932"
   xml:space="preserve"
   id="svg2"
   version="1.1"><metadata
     id="metadata8"><rdf:RDF><cc:Work
         rdf:about=""><dc:format>image/svg+xml</dc:format><dc:type
           rdf:resource="http://purl.org/dc/dcmitype/StillImage" /></cc:Work></rdf:RDF></metadata><defs
     id="defs6"><clipPath
       id="clipPath18"
       clipPathUnits="userSpaceOnUse"><path
         id="path16"
         d="M 0,141.732 H 425.197 V 0 H 0 Z" /></clipPath></defs><g
     transform="matrix(1.3333333,0,0,-1.3333333,0,188.976)"
     id="g10"><g
       id="g12"><g
         clip-path="url(#clipPath18)"
         id="g14"><g
           transform="translate(157.8491,113.3871)"
           id="g20"><path
             id="path22"
             style="fill:#231f20;fill-opacity:1;fill-rule:nonzero;stroke:none"
             d="M 0,0 C 0,0.786 -0.092,1.516 -0.275,2.191 -0.459,2.865 -0.754,3.45 -1.159,3.946 -1.565,4.441 -2.086,4.827 -2.722,5.105 -3.358,5.382 -4.193,5.521 -5.227,5.521 H -6.93 V -5.751 h 1.755 c 0.922,0 1.699,0.119 2.331,0.358 0.632,0.239 1.159,0.6 1.582,1.082 0.423,0.483 0.739,1.083 0.948,1.8 C -0.105,-1.793 0,-0.957 0,0 m 3.484,0.116 c 0,-1.521 -0.198,-2.821 -0.595,-3.901 -0.397,-1.081 -0.968,-1.963 -1.711,-2.646 -0.742,-0.683 -1.646,-1.184 -2.709,-1.505 -1.063,-0.32 -2.329,-0.48 -3.798,-0.48 h -3.959 c -0.281,0 -0.518,0.083 -0.711,0.25 -0.191,0.166 -0.288,0.437 -0.288,0.813 v 14.45 c 0,0.376 0.097,0.647 0.288,0.814 0.193,0.166 0.43,0.249 0.711,0.249 h 4.253 c 1.478,0 2.731,-0.173 3.76,-0.518 C -0.246,7.295 0.621,6.783 1.326,6.104 2.03,5.425 2.566,4.586 2.934,3.587 3.3,2.588 3.484,1.431 3.484,0.116" /></g><g
           transform="translate(170.4795,110.2616)"
           id="g24"><path
             id="path26"
             style="fill:#231f20;fill-opacity:1;fill-rule:nonzero;stroke:none"
             d="m 0,0 h -1.229 c -0.521,0 -0.966,-0.039 -1.333,-0.115 -0.367,-0.077 -0.666,-0.193 -0.896,-0.346 -0.231,-0.154 -0.4,-0.34 -0.507,-0.558 -0.106,-0.217 -0.16,-0.467 -0.16,-0.749 0,-0.478 0.152,-0.854 0.455,-1.127 0.303,-0.273 0.724,-0.41 1.262,-0.41 0.452,0 0.868,0.116 1.249,0.346 0.38,0.23 0.766,0.568 1.159,1.012 z M 3.164,-4.894 C 3.164,-5.013 3.121,-5.107 3.036,-5.175 2.951,-5.244 2.816,-5.292 2.632,-5.323 2.449,-5.353 2.178,-5.367 1.819,-5.367 1.435,-5.367 1.155,-5.353 0.98,-5.323 0.805,-5.292 0.681,-5.244 0.608,-5.175 0.536,-5.107 0.5,-5.013 0.5,-4.894 v 0.91 c -0.47,-0.504 -1.006,-0.896 -1.608,-1.179 -0.602,-0.281 -1.27,-0.422 -2.005,-0.422 -0.606,0 -1.163,0.079 -1.672,0.237 -0.507,0.158 -0.947,0.392 -1.319,0.704 -0.372,0.312 -0.66,0.699 -0.865,1.16 -0.204,0.461 -0.307,0.999 -0.307,1.614 0,0.666 0.13,1.245 0.391,1.736 0.26,0.49 0.649,0.896 1.165,1.217 0.517,0.32 1.16,0.557 1.928,0.71 0.769,0.154 1.661,0.231 2.678,0.231 H 0 V 2.716 C 0,3.074 -0.036,3.388 -0.109,3.657 -0.182,3.926 -0.301,4.15 -0.467,4.33 -0.634,4.509 -0.856,4.642 -1.134,4.727 -1.411,4.812 -1.755,4.855 -2.165,4.855 -2.703,4.855 -3.183,4.795 -3.606,4.676 -4.029,4.556 -4.402,4.424 -4.727,4.279 -5.051,4.133 -5.322,4.001 -5.54,3.881 -5.758,3.762 -5.936,3.702 -6.072,3.702 c -0.094,0 -0.177,0.03 -0.25,0.09 -0.073,0.06 -0.132,0.145 -0.179,0.256 -0.047,0.111 -0.083,0.247 -0.109,0.41 -0.026,0.162 -0.038,0.341 -0.038,0.538 0,0.265 0.021,0.474 0.064,0.628 0.042,0.153 0.124,0.292 0.243,0.416 0.12,0.124 0.329,0.26 0.628,0.41 0.298,0.149 0.649,0.288 1.05,0.416 0.402,0.128 0.839,0.233 1.313,0.314 0.474,0.081 0.963,0.122 1.467,0.122 0.897,0 1.663,-0.088 2.3,-0.263 C 1.053,6.864 1.576,6.595 1.986,6.232 2.396,5.869 2.694,5.401 2.882,4.83 3.07,4.257 3.164,3.578 3.164,2.792 Z" /></g><g
           transform="translate(184.9038,108.6346)"
           id="g28"><path
             id="path30"
             style="fill:#231f20;fill-opacity:1;fill-rule:nonzero;stroke:none"
             d="m 0,0 c 0,-0.649 -0.122,-1.221 -0.365,-1.716 -0.243,-0.496 -0.587,-0.91 -1.031,-1.243 -0.444,-0.333 -0.97,-0.583 -1.576,-0.749 -0.606,-0.167 -1.264,-0.25 -1.973,-0.25 -0.427,0 -0.834,0.032 -1.223,0.096 -0.389,0.064 -0.736,0.145 -1.044,0.243 -0.308,0.098 -0.563,0.199 -0.768,0.301 -0.206,0.103 -0.355,0.199 -0.449,0.289 -0.094,0.089 -0.166,0.23 -0.217,0.422 -0.052,0.192 -0.078,0.476 -0.078,0.852 0,0.248 0.009,0.446 0.026,0.596 0.017,0.149 0.043,0.269 0.077,0.359 0.034,0.089 0.077,0.149 0.128,0.179 0.051,0.03 0.116,0.045 0.192,0.045 0.094,0 0.233,-0.054 0.417,-0.16 0.183,-0.107 0.411,-0.224 0.685,-0.353 0.273,-0.128 0.591,-0.247 0.954,-0.358 0.363,-0.112 0.775,-0.167 1.236,-0.167 0.291,0 0.549,0.03 0.776,0.09 0.226,0.059 0.422,0.145 0.588,0.256 0.167,0.111 0.293,0.252 0.378,0.423 0.086,0.17 0.129,0.366 0.129,0.589 0,0.256 -0.079,0.476 -0.237,0.66 -0.159,0.183 -0.368,0.343 -0.628,0.48 -0.261,0.137 -0.555,0.264 -0.884,0.384 -0.329,0.12 -0.666,0.252 -1.012,0.398 -0.346,0.145 -0.684,0.311 -1.012,0.499 -0.329,0.188 -0.623,0.418 -0.884,0.692 -0.261,0.273 -0.47,0.602 -0.627,0.986 -0.159,0.385 -0.238,0.845 -0.238,1.384 0,0.546 0.107,1.048 0.321,1.505 0.213,0.456 0.521,0.847 0.922,1.172 0.401,0.325 0.89,0.576 1.467,0.756 0.576,0.179 1.223,0.269 1.941,0.269 0.358,0 0.706,-0.026 1.044,-0.077 C -2.628,8.801 -2.323,8.736 -2.049,8.66 -1.776,8.583 -1.546,8.5 -1.358,8.41 -1.17,8.32 -1.036,8.243 -0.954,8.179 -0.873,8.115 -0.815,8.051 -0.781,7.987 -0.747,7.923 -0.722,7.846 -0.705,7.757 -0.687,7.667 -0.672,7.556 -0.66,7.423 -0.647,7.291 -0.641,7.126 -0.641,6.93 -0.641,6.7 -0.647,6.512 -0.66,6.367 -0.672,6.221 -0.694,6.106 -0.724,6.021 -0.754,5.936 -0.794,5.878 -0.845,5.848 -0.896,5.818 -0.957,5.803 -1.025,5.803 c -0.077,0 -0.196,0.045 -0.358,0.134 -0.163,0.09 -0.366,0.187 -0.609,0.289 -0.243,0.102 -0.525,0.198 -0.845,0.288 -0.321,0.09 -0.685,0.134 -1.096,0.134 -0.29,0 -0.542,-0.029 -0.755,-0.089 C -4.902,6.499 -5.077,6.414 -5.213,6.303 -5.35,6.191 -5.453,6.061 -5.521,5.912 -5.589,5.762 -5.624,5.603 -5.624,5.432 c 0,-0.265 0.082,-0.487 0.244,-0.666 0.162,-0.18 0.376,-0.338 0.64,-0.474 0.265,-0.137 0.566,-0.265 0.904,-0.385 0.337,-0.119 0.678,-0.25 1.024,-0.39 C -2.466,3.375 -2.125,3.211 -1.787,3.023 -1.45,2.835 -1.148,2.605 -0.884,2.332 -0.619,2.058 -0.406,1.731 -0.243,1.352 -0.081,0.972 0,0.521 0,0" /></g><g
           transform="translate(203.7349,113.3871)"
           id="g32"><path
             id="path34"
             style="fill:#231f20;fill-opacity:1;fill-rule:nonzero;stroke:none"
             d="M 0,0 C 0,0.786 -0.092,1.516 -0.275,2.191 -0.459,2.865 -0.754,3.45 -1.159,3.946 -1.565,4.441 -2.086,4.827 -2.722,5.105 -3.358,5.382 -4.193,5.521 -5.227,5.521 H -6.93 V -5.751 h 1.755 c 0.922,0 1.699,0.119 2.331,0.358 0.632,0.239 1.159,0.6 1.582,1.082 0.423,0.483 0.739,1.083 0.948,1.8 C -0.105,-1.793 0,-0.957 0,0 m 3.484,0.116 c 0,-1.521 -0.198,-2.821 -0.595,-3.901 -0.397,-1.081 -0.968,-1.963 -1.711,-2.646 -0.742,-0.683 -1.646,-1.184 -2.709,-1.505 -1.063,-0.32 -2.329,-0.48 -3.798,-0.48 h -3.959 c -0.281,0 -0.518,0.083 -0.711,0.25 -0.191,0.166 -0.288,0.437 -0.288,0.813 v 14.45 c 0,0.376 0.097,0.647 0.288,0.814 0.193,0.166 0.43,0.249 0.711,0.249 h 4.253 c 1.478,0 2.731,-0.173 3.76,-0.518 C -0.246,7.295 0.621,6.783 1.326,6.104 2.03,5.425 2.566,4.586 2.934,3.587 3.3,2.588 3.484,1.431 3.484,0.116" /></g><g
           transform="translate(213.022,105.4066)"
           id="g36"><path
             id="path38"
             style="fill:#231f20;fill-opacity:1;fill-rule:nonzero;stroke:none"
             d="m 0,0 c 0,-0.085 -0.026,-0.16 -0.077,-0.224 -0.051,-0.064 -0.139,-0.118 -0.262,-0.16 -0.124,-0.043 -0.289,-0.075 -0.494,-0.096 -0.205,-0.021 -0.465,-0.032 -0.781,-0.032 -0.316,0 -0.576,0.011 -0.782,0.032 -0.205,0.021 -0.369,0.053 -0.493,0.096 -0.124,0.042 -0.211,0.096 -0.262,0.16 C -3.203,-0.16 -3.228,-0.085 -3.228,0 v 11.401 c 0,0.085 0.025,0.16 0.077,0.224 0.051,0.064 0.138,0.12 0.262,0.167 0.124,0.046 0.288,0.083 0.493,0.108 0.206,0.026 0.466,0.039 0.782,0.039 0.316,0 0.576,-0.013 0.781,-0.039 0.205,-0.025 0.37,-0.062 0.494,-0.108 0.123,-0.047 0.211,-0.103 0.262,-0.167 C -0.026,11.561 0,11.486 0,11.401 Z m 0.243,15.295 c 0,-0.649 -0.132,-1.097 -0.397,-1.345 -0.264,-0.248 -0.756,-0.371 -1.473,-0.371 -0.726,0 -1.215,0.119 -1.467,0.359 -0.252,0.238 -0.378,0.669 -0.378,1.293 0,0.649 0.131,1.1 0.391,1.352 0.261,0.251 0.754,0.377 1.479,0.377 0.718,0 1.205,-0.121 1.461,-0.365 0.256,-0.243 0.384,-0.677 0.384,-1.3" /></g><g
           transform="translate(222.3984,113.3358)"
           id="g40"><path
             id="path42"
             style="fill:#231f20;fill-opacity:1;fill-rule:nonzero;stroke:none"
             d="M 0,0 C 0,0.615 -0.171,1.093 -0.512,1.435 -0.854,1.776 -1.336,1.947 -1.96,1.947 -2.275,1.947 -2.554,1.894 -2.792,1.787 -3.031,1.68 -3.23,1.535 -3.388,1.352 -3.546,1.168 -3.663,0.955 -3.74,0.711 -3.817,0.468 -3.855,0.213 -3.855,-0.051 c 0,-0.581 0.17,-1.04 0.512,-1.377 0.341,-0.338 0.816,-0.506 1.422,-0.506 0.324,0 0.607,0.051 0.845,0.154 0.239,0.102 0.437,0.243 0.596,0.423 0.158,0.179 0.277,0.386 0.359,0.621 C -0.04,-0.501 0,-0.256 0,0 m 0.756,-9.121 c 0,0.385 -0.153,0.68 -0.461,0.884 -0.308,0.205 -0.731,0.316 -1.269,0.333 l -2.293,0.065 c -0.221,-0.163 -0.399,-0.319 -0.531,-0.468 -0.133,-0.15 -0.239,-0.293 -0.32,-0.429 -0.081,-0.137 -0.135,-0.269 -0.16,-0.397 -0.026,-0.128 -0.038,-0.261 -0.038,-0.397 0,-0.428 0.214,-0.752 0.646,-0.974 0.432,-0.222 1.04,-0.333 1.825,-0.333 0.488,0 0.898,0.049 1.231,0.147 0.333,0.099 0.601,0.229 0.806,0.391 0.205,0.162 0.351,0.344 0.436,0.545 0.085,0.2 0.128,0.412 0.128,0.633 M 4.138,2.703 C 4.138,2.293 4.091,1.99 3.997,1.793 3.903,1.597 3.788,1.499 3.651,1.499 H 2.306 C 2.494,1.294 2.628,1.061 2.71,0.801 2.791,0.54 2.831,0.269 2.831,-0.013 2.831,-0.679 2.721,-1.27 2.498,-1.787 2.276,-2.304 1.958,-2.739 1.544,-3.093 1.13,-3.448 0.63,-3.717 0.045,-3.9 -0.54,-4.084 -1.191,-4.176 -1.908,-4.176 c -0.367,0 -0.718,0.045 -1.051,0.134 -0.333,0.09 -0.589,0.195 -0.769,0.314 -0.102,-0.11 -0.194,-0.243 -0.275,-0.397 -0.081,-0.153 -0.122,-0.324 -0.122,-0.512 0,-0.248 0.109,-0.45 0.327,-0.609 0.218,-0.158 0.524,-0.245 0.916,-0.262 l 2.779,-0.102 c 0.65,-0.026 1.228,-0.118 1.737,-0.276 0.508,-0.158 0.934,-0.38 1.281,-0.666 0.346,-0.286 0.61,-0.63 0.794,-1.031 0.184,-0.402 0.275,-0.858 0.275,-1.371 0,-0.564 -0.124,-1.095 -0.372,-1.595 -0.247,-0.499 -0.619,-0.933 -1.114,-1.3 -0.495,-0.367 -1.116,-0.658 -1.863,-0.871 -0.748,-0.214 -1.621,-0.321 -2.62,-0.321 -0.974,0 -1.804,0.078 -2.492,0.231 -0.687,0.154 -1.251,0.368 -1.691,0.641 -0.439,0.273 -0.76,0.6 -0.96,0.98 -0.201,0.38 -0.302,0.796 -0.302,1.249 0,0.281 0.037,0.55 0.11,0.807 0.072,0.256 0.178,0.502 0.319,0.736 0.142,0.235 0.314,0.459 0.52,0.673 0.205,0.213 0.439,0.418 0.704,0.615 -0.368,0.196 -0.652,0.463 -0.852,0.8 -0.2,0.337 -0.301,0.707 -0.301,1.108 0,0.504 0.116,0.963 0.346,1.377 0.23,0.414 0.529,0.788 0.897,1.121 -0.299,0.299 -0.539,0.658 -0.717,1.077 -0.18,0.418 -0.27,0.939 -0.27,1.562 0,0.666 0.117,1.262 0.353,1.787 0.234,0.526 0.561,0.969 0.979,1.333 0.419,0.362 0.918,0.64 1.499,0.832 0.581,0.192 1.222,0.288 1.922,0.288 0.359,0 0.702,-0.021 1.031,-0.064 C -0.562,4.069 -0.256,4.01 0.026,3.933 H 3.651 C 3.796,3.933 3.914,3.839 4.004,3.651 4.093,3.463 4.138,3.147 4.138,2.703" /></g><g
           transform="translate(231.9033,105.4066)"
           id="g44"><path
             id="path46"
             style="fill:#231f20;fill-opacity:1;fill-rule:nonzero;stroke:none"
             d="m 0,0 c 0,-0.085 -0.025,-0.16 -0.076,-0.224 -0.052,-0.064 -0.14,-0.118 -0.263,-0.16 -0.124,-0.043 -0.288,-0.075 -0.493,-0.096 -0.205,-0.021 -0.466,-0.032 -0.781,-0.032 -0.317,0 -0.577,0.011 -0.783,0.032 -0.204,0.021 -0.369,0.053 -0.493,0.096 -0.123,0.042 -0.211,0.096 -0.261,0.16 C -3.202,-0.16 -3.228,-0.085 -3.228,0 v 11.401 c 0,0.085 0.026,0.16 0.078,0.224 0.05,0.064 0.138,0.12 0.261,0.167 0.124,0.046 0.289,0.083 0.493,0.108 0.206,0.026 0.466,0.039 0.783,0.039 0.315,0 0.576,-0.013 0.781,-0.039 0.205,-0.025 0.369,-0.062 0.493,-0.108 0.123,-0.047 0.211,-0.103 0.263,-0.167 C -0.025,11.561 0,11.486 0,11.401 Z m 0.244,15.295 c 0,-0.649 -0.133,-1.097 -0.397,-1.345 -0.265,-0.248 -0.756,-0.371 -1.474,-0.371 -0.726,0 -1.215,0.119 -1.466,0.359 -0.253,0.238 -0.378,0.669 -0.378,1.293 0,0.649 0.13,1.1 0.391,1.352 0.26,0.251 0.753,0.377 1.479,0.377 0.717,0 1.205,-0.121 1.46,-0.365 0.256,-0.243 0.385,-0.677 0.385,-1.3" /></g><g
           transform="translate(241.8828,106.534)"
           id="g48"><path
             id="path50"
             style="fill:#231f20;fill-opacity:1;fill-rule:nonzero;stroke:none"
             d="m 0,0 c 0,-0.376 -0.023,-0.664 -0.07,-0.865 -0.047,-0.2 -0.11,-0.342 -0.187,-0.423 -0.076,-0.081 -0.189,-0.153 -0.339,-0.217 -0.149,-0.064 -0.325,-0.12 -0.525,-0.167 -0.201,-0.047 -0.419,-0.083 -0.653,-0.109 -0.236,-0.025 -0.472,-0.038 -0.711,-0.038 -0.641,0 -1.196,0.081 -1.665,0.243 -0.47,0.162 -0.859,0.412 -1.166,0.75 -0.308,0.337 -0.535,0.762 -0.679,1.274 -0.146,0.512 -0.218,1.119 -0.218,1.819 v 5.855 h -1.371 c -0.162,0 -0.286,0.1 -0.371,0.3 -0.086,0.201 -0.128,0.536 -0.128,1.006 0,0.248 0.011,0.457 0.031,0.628 0.022,0.171 0.054,0.305 0.097,0.403 0.043,0.098 0.096,0.169 0.16,0.211 0.064,0.043 0.139,0.065 0.224,0.065 h 1.358 v 2.549 c 0,0.085 0.024,0.162 0.07,0.231 0.047,0.068 0.132,0.125 0.256,0.173 0.124,0.046 0.291,0.081 0.5,0.102 0.209,0.021 0.468,0.032 0.776,0.032 0.315,0 0.578,-0.011 0.787,-0.032 0.209,-0.021 0.374,-0.056 0.493,-0.102 0.12,-0.048 0.205,-0.105 0.257,-0.173 0.051,-0.069 0.076,-0.146 0.076,-0.231 v -2.549 h 2.485 c 0.085,0 0.16,-0.022 0.225,-0.065 0.063,-0.042 0.117,-0.113 0.16,-0.211 0.042,-0.098 0.074,-0.232 0.096,-0.403 C -0.011,9.885 0,9.676 0,9.428 0,8.958 -0.043,8.623 -0.128,8.422 -0.214,8.222 -0.338,8.122 -0.5,8.122 H -2.998 V 2.754 c 0,-0.624 0.099,-1.091 0.295,-1.403 0.196,-0.311 0.547,-0.467 1.051,-0.467 0.171,0 0.324,0.014 0.461,0.045 0.136,0.029 0.257,0.064 0.365,0.102 0.106,0.038 0.196,0.073 0.268,0.102 0.073,0.031 0.139,0.045 0.2,0.045 0.05,0 0.099,-0.014 0.146,-0.045 C -0.165,1.104 -0.128,1.044 -0.103,0.954 -0.077,0.865 -0.054,0.743 -0.032,0.589 -0.011,0.436 0,0.239 0,0" /></g><g
           transform="translate(250.5293,110.2616)"
           id="g52"><path
             id="path54"
             style="fill:#231f20;fill-opacity:1;fill-rule:nonzero;stroke:none"
             d="m 0,0 h -1.229 c -0.522,0 -0.966,-0.039 -1.333,-0.115 -0.368,-0.077 -0.667,-0.193 -0.897,-0.346 -0.23,-0.154 -0.399,-0.34 -0.506,-0.558 -0.106,-0.217 -0.16,-0.467 -0.16,-0.749 0,-0.478 0.151,-0.854 0.455,-1.127 0.303,-0.273 0.724,-0.41 1.262,-0.41 0.452,0 0.869,0.116 1.249,0.346 0.38,0.23 0.766,0.568 1.159,1.012 z M 3.164,-4.894 C 3.164,-5.013 3.121,-5.107 3.036,-5.175 2.95,-5.244 2.816,-5.292 2.633,-5.323 2.449,-5.353 2.178,-5.367 1.819,-5.367 1.435,-5.367 1.155,-5.353 0.98,-5.323 0.805,-5.292 0.681,-5.244 0.608,-5.175 0.536,-5.107 0.5,-5.013 0.5,-4.894 v 0.91 c -0.47,-0.504 -1.006,-0.896 -1.608,-1.179 -0.602,-0.281 -1.27,-0.422 -2.004,-0.422 -0.608,0 -1.164,0.079 -1.672,0.237 -0.509,0.158 -0.948,0.392 -1.32,0.704 -0.372,0.312 -0.66,0.699 -0.865,1.16 -0.205,0.461 -0.307,0.999 -0.307,1.614 0,0.666 0.13,1.245 0.39,1.736 0.261,0.49 0.65,0.896 1.166,1.217 0.517,0.32 1.159,0.557 1.928,0.71 0.769,0.154 1.661,0.231 2.678,0.231 H 0 v 0.692 c 0,0.358 -0.036,0.672 -0.108,0.941 -0.074,0.269 -0.193,0.493 -0.36,0.673 -0.166,0.179 -0.388,0.312 -0.666,0.397 -0.277,0.085 -0.621,0.128 -1.031,0.128 -0.538,0 -1.019,-0.06 -1.44,-0.179 C -4.028,4.556 -4.402,4.424 -4.727,4.279 -5.052,4.133 -5.322,4.001 -5.54,3.881 -5.758,3.762 -5.936,3.702 -6.072,3.702 c -0.094,0 -0.177,0.03 -0.249,0.09 -0.074,0.06 -0.133,0.145 -0.18,0.256 -0.047,0.111 -0.083,0.247 -0.109,0.41 -0.026,0.162 -0.038,0.341 -0.038,0.538 0,0.265 0.021,0.474 0.064,0.628 0.042,0.153 0.123,0.292 0.243,0.416 0.119,0.124 0.328,0.26 0.628,0.41 0.299,0.149 0.649,0.288 1.05,0.416 0.401,0.128 0.84,0.233 1.313,0.314 0.474,0.081 0.963,0.122 1.467,0.122 0.897,0 1.663,-0.088 2.299,-0.263 C 1.053,6.864 1.576,6.595 1.985,6.232 2.396,5.869 2.694,5.401 2.883,4.83 3.07,4.257 3.164,3.578 3.164,2.792 Z" /></g><g
           transform="translate(260.1367,105.4066)"
           id="g56"><path
             id="path58"
             style="fill:#231f20;fill-opacity:1;fill-rule:nonzero;stroke:none"
             d="m 0,0 c 0,-0.085 -0.025,-0.16 -0.076,-0.224 -0.052,-0.064 -0.14,-0.118 -0.263,-0.16 -0.124,-0.043 -0.288,-0.075 -0.493,-0.096 -0.205,-0.021 -0.466,-0.032 -0.781,-0.032 -0.317,0 -0.577,0.011 -0.783,0.032 -0.204,0.021 -0.369,0.053 -0.493,0.096 -0.123,0.042 -0.211,0.096 -0.261,0.16 C -3.202,-0.16 -3.228,-0.085 -3.228,0 v 16.845 c 0,0.086 0.026,0.162 0.078,0.231 0.05,0.068 0.138,0.126 0.261,0.173 0.124,0.046 0.289,0.083 0.493,0.108 0.206,0.026 0.466,0.039 0.783,0.039 0.315,0 0.576,-0.013 0.781,-0.039 0.205,-0.025 0.369,-0.062 0.493,-0.108 0.123,-0.047 0.211,-0.105 0.263,-0.173 C -0.025,17.007 0,16.931 0,16.845 Z" /></g><g
           transform="translate(266.5801,105.4066)"
           id="g60"><path
             id="path62"
             style="fill:#231f20;fill-opacity:1;fill-rule:nonzero;stroke:none"
             d="m 0,0 c 0,-0.085 -0.025,-0.16 -0.076,-0.224 -0.052,-0.064 -0.14,-0.118 -0.263,-0.16 -0.124,-0.043 -0.288,-0.075 -0.493,-0.096 -0.205,-0.021 -0.466,-0.032 -0.781,-0.032 -0.317,0 -0.577,0.011 -0.783,0.032 -0.204,0.021 -0.369,0.053 -0.493,0.096 -0.123,0.042 -0.211,0.096 -0.261,0.16 C -3.202,-0.16 -3.228,-0.085 -3.228,0 v 11.401 c 0,0.085 0.026,0.16 0.078,0.224 0.05,0.064 0.138,0.12 0.261,0.167 0.124,0.046 0.289,0.083 0.493,0.108 0.206,0.026 0.466,0.039 0.783,0.039 0.315,0 0.576,-0.013 0.781,-0.039 0.205,-0.025 0.369,-0.062 0.493,-0.108 0.123,-0.047 0.211,-0.103 0.263,-0.167 C -0.025,11.561 0,11.486 0,11.401 Z m 0.244,15.295 c 0,-0.649 -0.133,-1.097 -0.397,-1.345 -0.265,-0.248 -0.756,-0.371 -1.474,-0.371 -0.726,0 -1.215,0.119 -1.466,0.359 -0.253,0.238 -0.378,0.669 -0.378,1.293 0,0.649 0.13,1.1 0.391,1.352 0.26,0.251 0.753,0.377 1.479,0.377 0.717,0 1.205,-0.121 1.46,-0.365 0.256,-0.243 0.385,-0.677 0.385,-1.3" /></g><g
           transform="translate(277.8408,108.6346)"
           id="g64"><path
             id="path66"
             style="fill:#231f20;fill-opacity:1;fill-rule:nonzero;stroke:none"
             d="m 0,0 c 0,-0.649 -0.122,-1.221 -0.365,-1.716 -0.243,-0.496 -0.588,-0.91 -1.031,-1.243 -0.445,-0.333 -0.97,-0.583 -1.577,-0.749 -0.606,-0.167 -1.263,-0.25 -1.972,-0.25 -0.427,0 -0.835,0.032 -1.223,0.096 -0.39,0.064 -0.737,0.145 -1.045,0.243 -0.307,0.098 -0.563,0.199 -0.768,0.301 -0.205,0.103 -0.355,0.199 -0.449,0.289 -0.093,0.089 -0.166,0.23 -0.217,0.422 -0.051,0.192 -0.077,0.476 -0.077,0.852 0,0.248 0.008,0.446 0.026,0.596 0.016,0.149 0.042,0.269 0.077,0.359 0.033,0.089 0.076,0.149 0.128,0.179 0.051,0.03 0.115,0.045 0.191,0.045 0.095,0 0.234,-0.054 0.417,-0.16 0.184,-0.107 0.412,-0.224 0.686,-0.353 0.272,-0.128 0.591,-0.247 0.954,-0.358 0.362,-0.112 0.774,-0.167 1.236,-0.167 0.29,0 0.548,0.03 0.775,0.09 0.226,0.059 0.422,0.145 0.589,0.256 0.166,0.111 0.292,0.252 0.378,0.423 0.085,0.17 0.128,0.366 0.128,0.589 0,0.256 -0.079,0.476 -0.237,0.66 -0.158,0.183 -0.367,0.343 -0.628,0.48 -0.26,0.137 -0.555,0.264 -0.884,0.384 -0.328,0.12 -0.666,0.252 -1.011,0.398 -0.346,0.145 -0.684,0.311 -1.012,0.499 -0.329,0.188 -0.624,0.418 -0.884,0.692 -0.261,0.273 -0.47,0.602 -0.628,0.986 -0.158,0.385 -0.237,0.845 -0.237,1.384 0,0.546 0.106,1.048 0.32,1.505 0.214,0.456 0.521,0.847 0.923,1.172 0.401,0.325 0.89,0.576 1.467,0.756 0.576,0.179 1.222,0.269 1.94,0.269 0.359,0 0.706,-0.026 1.044,-0.077 C -2.629,8.801 -2.323,8.736 -2.05,8.66 -1.776,8.583 -1.546,8.5 -1.358,8.41 -1.171,8.32 -1.036,8.243 -0.955,8.179 -0.874,8.115 -0.816,8.051 -0.782,7.987 -0.748,7.923 -0.722,7.846 -0.705,7.757 -0.687,7.667 -0.673,7.556 -0.66,7.423 -0.647,7.291 -0.641,7.126 -0.641,6.93 -0.641,6.7 -0.647,6.512 -0.66,6.367 -0.673,6.221 -0.694,6.106 -0.725,6.021 -0.754,5.936 -0.795,5.878 -0.846,5.848 -0.897,5.818 -0.957,5.803 -1.025,5.803 c -0.078,0 -0.197,0.045 -0.359,0.134 -0.162,0.09 -0.365,0.187 -0.608,0.289 -0.243,0.102 -0.526,0.198 -0.846,0.288 -0.32,0.09 -0.685,0.134 -1.095,0.134 -0.291,0 -0.543,-0.029 -0.755,-0.089 C -4.902,6.499 -5.077,6.414 -5.214,6.303 -5.351,6.191 -5.453,6.061 -5.521,5.912 -5.59,5.762 -5.624,5.603 -5.624,5.432 -5.624,5.167 -5.543,4.945 -5.381,4.766 -5.219,4.586 -5.005,4.428 -4.74,4.292 -4.476,4.155 -4.175,4.027 -3.837,3.907 -3.5,3.788 -3.158,3.657 -2.813,3.517 -2.467,3.375 -2.125,3.211 -1.787,3.023 -1.45,2.835 -1.149,2.605 -0.885,2.332 -0.62,2.058 -0.406,1.731 -0.244,1.352 -0.082,0.972 0,0.521 0,0" /></g><g
           transform="translate(283.4893,105.4066)"
           id="g68"><path
             id="path70"
             style="fill:#231f20;fill-opacity:1;fill-rule:nonzero;stroke:none"
             d="m 0,0 c 0,-0.085 -0.025,-0.16 -0.076,-0.224 -0.052,-0.064 -0.14,-0.118 -0.263,-0.16 -0.124,-0.043 -0.288,-0.075 -0.493,-0.096 -0.205,-0.021 -0.466,-0.032 -0.781,-0.032 -0.317,0 -0.577,0.011 -0.783,0.032 -0.204,0.021 -0.369,0.053 -0.493,0.096 -0.123,0.042 -0.211,0.096 -0.261,0.16 C -3.202,-0.16 -3.228,-0.085 -3.228,0 v 11.401 c 0,0.085 0.026,0.16 0.078,0.224 0.05,0.064 0.138,0.12 0.261,0.167 0.124,0.046 0.289,0.083 0.493,0.108 0.206,0.026 0.466,0.039 0.783,0.039 0.315,0 0.576,-0.013 0.781,-0.039 0.205,-0.025 0.369,-0.062 0.493,-0.108 0.123,-0.047 0.211,-0.103 0.263,-0.167 C -0.025,11.561 0,11.486 0,11.401 Z m 0.244,15.295 c 0,-0.649 -0.133,-1.097 -0.397,-1.345 -0.265,-0.248 -0.756,-0.371 -1.474,-0.371 -0.726,0 -1.215,0.119 -1.466,0.359 -0.253,0.238 -0.378,0.669 -0.378,1.293 0,0.649 0.13,1.1 0.391,1.352 0.26,0.251 0.753,0.377 1.479,0.377 0.717,0 1.205,-0.121 1.46,-0.365 0.256,-0.243 0.385,-0.677 0.385,-1.3" /></g><g
           transform="translate(294.1348,112.3754)"
           id="g72"><path
             id="path74"
             style="fill:#231f20;fill-opacity:1;fill-rule:nonzero;stroke:none"
             d="m 0,0 c 0.025,0.905 -0.156,1.616 -0.545,2.133 -0.389,0.516 -0.988,0.775 -1.8,0.775 -0.409,0 -0.766,-0.077 -1.069,-0.231 C -3.717,2.523 -3.969,2.316 -4.17,2.056 -4.37,1.795 -4.524,1.488 -4.631,1.134 -4.737,0.779 -4.8,0.401 -4.816,0 Z M 3.126,-0.922 C 3.126,-1.315 3.038,-1.606 2.863,-1.793 2.688,-1.981 2.446,-2.075 2.14,-2.075 h -6.956 c 0,-0.487 0.057,-0.929 0.172,-1.326 0.116,-0.397 0.299,-0.735 0.551,-1.012 0.252,-0.278 0.576,-0.489 0.974,-0.634 0.396,-0.145 0.873,-0.218 1.428,-0.218 0.564,0 1.059,0.04 1.486,0.121 0.427,0.082 0.796,0.171 1.108,0.269 0.312,0.099 0.57,0.188 0.775,0.27 0.205,0.081 0.372,0.122 0.5,0.122 0.077,0 0.14,-0.016 0.192,-0.045 0.051,-0.031 0.094,-0.084 0.128,-0.16 0.034,-0.078 0.058,-0.187 0.07,-0.327 0.013,-0.141 0.02,-0.318 0.02,-0.532 0,-0.188 -0.005,-0.348 -0.013,-0.48 C 2.566,-6.16 2.554,-6.273 2.536,-6.367 2.52,-6.461 2.493,-6.54 2.46,-6.604 2.425,-6.667 2.381,-6.73 2.325,-6.79 2.27,-6.849 2.118,-6.93 1.87,-7.033 1.622,-7.135 1.307,-7.236 0.922,-7.334 0.538,-7.432 0.098,-7.518 -0.397,-7.59 c -0.496,-0.073 -1.025,-0.109 -1.588,-0.109 -1.017,0 -1.908,0.128 -2.671,0.385 -0.765,0.255 -1.404,0.644 -1.915,1.165 -0.513,0.521 -0.895,1.179 -1.147,1.973 -0.252,0.794 -0.378,1.725 -0.378,2.792 0,1.017 0.132,1.932 0.397,2.748 0.264,0.816 0.649,1.508 1.153,2.075 0.504,0.568 1.116,1.001 1.838,1.301 0.722,0.299 1.535,0.448 2.44,0.448 0.956,0 1.775,-0.141 2.454,-0.423 C 0.864,4.483 1.422,4.093 1.857,3.593 2.293,3.094 2.613,2.502 2.818,1.819 3.023,1.136 3.126,0.393 3.126,-0.41 Z" /></g><g
           transform="translate(307.2529,115.7699)"
           id="g76"><path
             id="path78"
             style="fill:#231f20;fill-opacity:1;fill-rule:nonzero;stroke:none"
             d="m 0,0 c 0,-0.308 -0.009,-0.56 -0.025,-0.756 -0.018,-0.196 -0.043,-0.35 -0.078,-0.461 -0.034,-0.111 -0.079,-0.188 -0.134,-0.23 -0.056,-0.043 -0.126,-0.065 -0.211,-0.065 -0.069,0 -0.146,0.015 -0.231,0.045 -0.086,0.03 -0.181,0.062 -0.288,0.096 -0.107,0.035 -0.224,0.066 -0.352,0.097 -0.128,0.029 -0.269,0.045 -0.423,0.045 -0.179,0 -0.359,-0.037 -0.538,-0.109 -0.179,-0.073 -0.366,-0.186 -0.557,-0.34 -0.192,-0.154 -0.393,-0.359 -0.602,-0.615 -0.209,-0.256 -0.434,-0.572 -0.673,-0.948 v -7.122 c 0,-0.086 -0.026,-0.16 -0.076,-0.224 -0.052,-0.064 -0.14,-0.118 -0.263,-0.161 -0.124,-0.043 -0.288,-0.074 -0.493,-0.096 -0.205,-0.021 -0.466,-0.031 -0.782,-0.031 -0.316,0 -0.577,0.01 -0.782,0.031 -0.204,0.022 -0.369,0.053 -0.493,0.096 -0.123,0.043 -0.211,0.097 -0.262,0.161 -0.051,0.064 -0.077,0.138 -0.077,0.224 V 1.063 c 0,0.085 0.022,0.161 0.064,0.225 0.043,0.064 0.12,0.117 0.231,0.16 0.11,0.042 0.254,0.074 0.429,0.095 0.175,0.022 0.394,0.033 0.659,0.033 0.273,0 0.5,-0.011 0.68,-0.033 0.178,-0.021 0.317,-0.053 0.416,-0.095 0.097,-0.043 0.169,-0.096 0.211,-0.16 0.043,-0.064 0.064,-0.14 0.064,-0.225 v -1.421 c 0.299,0.426 0.581,0.778 0.846,1.056 0.264,0.278 0.516,0.498 0.756,0.66 0.238,0.162 0.477,0.275 0.716,0.339 0.24,0.064 0.479,0.096 0.718,0.096 0.111,0 0.231,-0.006 0.359,-0.019 0.128,-0.013 0.26,-0.034 0.397,-0.064 0.137,-0.03 0.256,-0.064 0.358,-0.102 0.103,-0.039 0.178,-0.079 0.225,-0.122 0.047,-0.043 0.081,-0.09 0.103,-0.141 0.02,-0.051 0.04,-0.121 0.057,-0.211 C -0.034,1.044 -0.021,0.91 -0.013,0.73 -0.004,0.551 0,0.308 0,0" /></g><g
           transform="translate(320.0752,105.4066)"
           id="g80"><path
             id="path82"
             style="fill:#231f20;fill-opacity:1;fill-rule:nonzero;stroke:none"
             d="m 0,0 c 0,-0.085 -0.021,-0.16 -0.063,-0.224 -0.043,-0.064 -0.119,-0.118 -0.225,-0.16 -0.107,-0.043 -0.248,-0.075 -0.423,-0.096 -0.175,-0.021 -0.394,-0.032 -0.659,-0.032 -0.282,0 -0.511,0.011 -0.686,0.032 -0.174,0.021 -0.314,0.053 -0.416,0.096 -0.102,0.042 -0.175,0.096 -0.217,0.16 C -2.732,-0.16 -2.754,-0.085 -2.754,0 v 1.319 c -0.632,-0.683 -1.274,-1.195 -1.928,-1.537 -0.653,-0.341 -1.33,-0.512 -2.03,-0.512 -0.786,0 -1.446,0.128 -1.979,0.384 -0.535,0.256 -0.965,0.606 -1.294,1.051 -0.329,0.443 -0.564,0.958 -0.704,1.543 -0.142,0.585 -0.212,1.313 -0.212,2.184 v 6.995 c 0,0.085 0.023,0.16 0.07,0.224 0.047,0.064 0.133,0.117 0.257,0.16 0.123,0.043 0.29,0.075 0.499,0.096 0.209,0.021 0.468,0.032 0.775,0.032 0.316,0 0.576,-0.011 0.781,-0.032 0.206,-0.021 0.37,-0.053 0.494,-0.096 0.124,-0.043 0.212,-0.096 0.262,-0.16 0.051,-0.064 0.077,-0.139 0.077,-0.224 V 4.97 c 0,-0.597 0.039,-1.054 0.116,-1.37 0.076,-0.316 0.194,-0.588 0.351,-0.814 0.158,-0.226 0.36,-0.401 0.603,-0.525 0.243,-0.124 0.527,-0.186 0.851,-0.186 0.411,0 0.823,0.15 1.237,0.448 0.414,0.299 0.856,0.735 1.326,1.307 v 7.597 c 0,0.085 0.023,0.16 0.07,0.224 0.047,0.064 0.132,0.117 0.256,0.16 0.124,0.043 0.288,0.075 0.493,0.096 0.205,0.021 0.466,0.032 0.782,0.032 0.316,0 0.577,-0.011 0.782,-0.032 0.205,-0.021 0.367,-0.053 0.486,-0.096 0.12,-0.043 0.205,-0.096 0.257,-0.16 C -0.025,11.587 0,11.512 0,11.427 Z" /></g><g
           transform="translate(334.2305,105.4066)"
           id="g84"><path
             id="path86"
             style="fill:#231f20;fill-opacity:1;fill-rule:nonzero;stroke:none"
             d="m 0,0 c 0,-0.085 -0.025,-0.16 -0.077,-0.224 -0.051,-0.064 -0.137,-0.118 -0.256,-0.16 -0.12,-0.043 -0.284,-0.075 -0.493,-0.096 -0.21,-0.021 -0.468,-0.032 -0.776,-0.032 -0.315,0 -0.578,0.011 -0.787,0.032 -0.21,0.021 -0.374,0.053 -0.494,0.096 -0.119,0.042 -0.204,0.096 -0.256,0.16 -0.05,0.064 -0.077,0.139 -0.077,0.224 v 6.521 c 0,0.554 -0.04,0.99 -0.121,1.306 -0.081,0.316 -0.199,0.587 -0.352,0.813 -0.154,0.227 -0.353,0.402 -0.596,0.526 -0.243,0.123 -0.527,0.186 -0.852,0.186 -0.41,0 -0.824,-0.15 -1.243,-0.449 C -6.798,8.604 -7.233,8.168 -7.687,7.596 V 0 c 0,-0.085 -0.025,-0.16 -0.076,-0.224 -0.051,-0.064 -0.139,-0.118 -0.262,-0.16 -0.124,-0.043 -0.288,-0.075 -0.494,-0.096 -0.205,-0.021 -0.465,-0.032 -0.781,-0.032 -0.316,0 -0.577,0.011 -0.782,0.032 -0.204,0.021 -0.369,0.053 -0.493,0.096 -0.123,0.042 -0.211,0.096 -0.262,0.16 -0.052,0.064 -0.077,0.139 -0.077,0.224 v 11.427 c 0,0.085 0.021,0.16 0.063,0.224 0.043,0.064 0.121,0.117 0.232,0.16 0.11,0.043 0.254,0.075 0.429,0.096 0.174,0.021 0.394,0.032 0.659,0.032 0.273,0 0.5,-0.011 0.679,-0.032 0.179,-0.021 0.318,-0.053 0.416,-0.096 0.098,-0.043 0.169,-0.096 0.211,-0.16 0.043,-0.064 0.065,-0.139 0.065,-0.224 v -1.32 c 0.632,0.683 1.274,1.196 1.928,1.538 0.653,0.341 1.335,0.512 2.043,0.512 0.777,0 1.432,-0.128 1.966,-0.385 0.534,-0.256 0.965,-0.604 1.294,-1.043 0.328,-0.44 0.566,-0.955 0.711,-1.544 C -0.072,8.596 0,7.887 0,7.058 Z" /></g><g
           transform="translate(343.5557,113.3358)"
           id="g88"><path
             id="path90"
             style="fill:#231f20;fill-opacity:1;fill-rule:nonzero;stroke:none"
             d="M 0,0 C 0,0.615 -0.171,1.093 -0.512,1.435 -0.854,1.776 -1.336,1.947 -1.96,1.947 -2.275,1.947 -2.554,1.894 -2.792,1.787 -3.031,1.68 -3.23,1.535 -3.388,1.352 -3.546,1.168 -3.663,0.955 -3.74,0.711 -3.817,0.468 -3.855,0.213 -3.855,-0.051 c 0,-0.581 0.17,-1.04 0.512,-1.377 0.341,-0.338 0.816,-0.506 1.422,-0.506 0.324,0 0.607,0.051 0.845,0.154 0.239,0.102 0.437,0.243 0.596,0.423 0.158,0.179 0.277,0.386 0.359,0.621 C -0.04,-0.501 0,-0.256 0,0 m 0.756,-9.121 c 0,0.385 -0.153,0.68 -0.461,0.884 -0.308,0.205 -0.731,0.316 -1.269,0.333 l -2.293,0.065 c -0.221,-0.163 -0.399,-0.319 -0.531,-0.468 -0.133,-0.15 -0.239,-0.293 -0.32,-0.429 -0.081,-0.137 -0.135,-0.269 -0.16,-0.397 -0.026,-0.128 -0.038,-0.261 -0.038,-0.397 0,-0.428 0.214,-0.752 0.646,-0.974 0.432,-0.222 1.04,-0.333 1.825,-0.333 0.488,0 0.898,0.049 1.231,0.147 0.333,0.099 0.601,0.229 0.806,0.391 0.205,0.162 0.351,0.344 0.436,0.545 0.085,0.2 0.128,0.412 0.128,0.633 M 4.138,2.703 C 4.138,2.293 4.091,1.99 3.997,1.793 3.903,1.597 3.788,1.499 3.651,1.499 H 2.306 C 2.494,1.294 2.628,1.061 2.71,0.801 2.791,0.54 2.831,0.269 2.831,-0.013 2.831,-0.679 2.721,-1.27 2.498,-1.787 2.276,-2.304 1.958,-2.739 1.544,-3.093 1.13,-3.448 0.63,-3.717 0.045,-3.9 -0.54,-4.084 -1.191,-4.176 -1.908,-4.176 c -0.367,0 -0.718,0.045 -1.051,0.134 -0.333,0.09 -0.589,0.195 -0.769,0.314 -0.102,-0.11 -0.194,-0.243 -0.275,-0.397 -0.081,-0.153 -0.122,-0.324 -0.122,-0.512 0,-0.248 0.109,-0.45 0.327,-0.609 0.218,-0.158 0.524,-0.245 0.916,-0.262 l 2.779,-0.102 c 0.65,-0.026 1.228,-0.118 1.737,-0.276 0.508,-0.158 0.934,-0.38 1.281,-0.666 0.346,-0.286 0.61,-0.63 0.794,-1.031 0.184,-0.402 0.275,-0.858 0.275,-1.371 0,-0.564 -0.124,-1.095 -0.372,-1.595 -0.247,-0.499 -0.619,-0.933 -1.114,-1.3 -0.495,-0.367 -1.116,-0.658 -1.863,-0.871 -0.748,-0.214 -1.621,-0.321 -2.62,-0.321 -0.974,0 -1.804,0.078 -2.492,0.231 -0.687,0.154 -1.251,0.368 -1.691,0.641 -0.439,0.273 -0.76,0.6 -0.961,0.98 -0.2,0.38 -0.301,0.796 -0.301,1.249 0,0.281 0.036,0.55 0.11,0.807 0.072,0.256 0.178,0.502 0.32,0.736 0.141,0.235 0.313,0.459 0.519,0.673 0.205,0.213 0.439,0.418 0.704,0.615 -0.368,0.196 -0.652,0.463 -0.852,0.8 -0.201,0.337 -0.301,0.707 -0.301,1.108 0,0.504 0.116,0.963 0.346,1.377 0.23,0.414 0.529,0.788 0.897,1.121 -0.299,0.299 -0.539,0.658 -0.717,1.077 -0.18,0.418 -0.27,0.939 -0.27,1.562 0,0.666 0.117,1.262 0.353,1.787 0.234,0.526 0.561,0.969 0.979,1.333 0.419,0.362 0.918,0.64 1.499,0.832 0.581,0.192 1.222,0.288 1.922,0.288 0.359,0 0.702,-0.021 1.031,-0.064 C -0.562,4.069 -0.256,4.01 0.026,3.933 H 3.651 C 3.796,3.933 3.914,3.839 4.004,3.651 4.093,3.463 4.138,3.147 4.138,2.703" /></g><g
           transform="translate(357.8779,108.6346)"
           id="g92"><path
             id="path94"
             style="fill:#231f20;fill-opacity:1;fill-rule:nonzero;stroke:none"
             d="m 0,0 c 0,-0.649 -0.122,-1.221 -0.365,-1.716 -0.243,-0.496 -0.588,-0.91 -1.031,-1.243 -0.445,-0.333 -0.97,-0.583 -1.577,-0.749 -0.606,-0.167 -1.263,-0.25 -1.972,-0.25 -0.427,0 -0.835,0.032 -1.223,0.096 -0.39,0.064 -0.737,0.145 -1.045,0.243 -0.307,0.098 -0.563,0.199 -0.768,0.301 -0.205,0.103 -0.355,0.199 -0.449,0.289 -0.093,0.089 -0.166,0.23 -0.217,0.422 -0.051,0.192 -0.077,0.476 -0.077,0.852 0,0.248 0.008,0.446 0.026,0.596 0.016,0.149 0.042,0.269 0.077,0.359 0.033,0.089 0.076,0.149 0.128,0.179 0.051,0.03 0.115,0.045 0.191,0.045 0.095,0 0.234,-0.054 0.417,-0.16 0.184,-0.107 0.412,-0.224 0.686,-0.353 0.272,-0.128 0.591,-0.247 0.954,-0.358 0.362,-0.112 0.774,-0.167 1.236,-0.167 0.29,0 0.548,0.03 0.775,0.09 0.226,0.059 0.422,0.145 0.589,0.256 0.166,0.111 0.292,0.252 0.378,0.423 0.085,0.17 0.128,0.366 0.128,0.589 0,0.256 -0.079,0.476 -0.237,0.66 -0.158,0.183 -0.367,0.343 -0.628,0.48 -0.26,0.137 -0.555,0.264 -0.884,0.384 -0.328,0.12 -0.666,0.252 -1.011,0.398 -0.346,0.145 -0.684,0.311 -1.012,0.499 -0.329,0.188 -0.624,0.418 -0.884,0.692 -0.261,0.273 -0.47,0.602 -0.628,0.986 -0.158,0.385 -0.237,0.845 -0.237,1.384 0,0.546 0.106,1.048 0.32,1.505 0.214,0.456 0.521,0.847 0.923,1.172 0.401,0.325 0.89,0.576 1.467,0.756 0.576,0.179 1.222,0.269 1.94,0.269 0.359,0 0.706,-0.026 1.044,-0.077 C -2.629,8.801 -2.323,8.736 -2.05,8.66 -1.776,8.583 -1.546,8.5 -1.358,8.41 -1.171,8.32 -1.036,8.243 -0.955,8.179 -0.874,8.115 -0.816,8.051 -0.782,7.987 -0.748,7.923 -0.722,7.846 -0.705,7.757 -0.687,7.667 -0.673,7.556 -0.66,7.423 -0.647,7.291 -0.641,7.126 -0.641,6.93 -0.641,6.7 -0.647,6.512 -0.66,6.367 -0.673,6.221 -0.694,6.106 -0.725,6.021 -0.754,5.936 -0.795,5.878 -0.846,5.848 -0.897,5.818 -0.957,5.803 -1.025,5.803 c -0.078,0 -0.197,0.045 -0.359,0.134 -0.162,0.09 -0.365,0.187 -0.608,0.289 -0.243,0.102 -0.526,0.198 -0.846,0.288 -0.32,0.09 -0.685,0.134 -1.095,0.134 -0.291,0 -0.543,-0.029 -0.755,-0.089 C -4.902,6.499 -5.077,6.414 -5.214,6.303 -5.351,6.191 -5.453,6.061 -5.521,5.912 -5.59,5.762 -5.624,5.603 -5.624,5.432 -5.624,5.167 -5.543,4.945 -5.381,4.766 -5.219,4.586 -5.005,4.428 -4.74,4.292 -4.476,4.155 -4.175,4.027 -3.837,3.907 -3.5,3.788 -3.158,3.657 -2.813,3.517 -2.467,3.375 -2.125,3.211 -1.787,3.023 -1.45,2.835 -1.149,2.605 -0.885,2.332 -0.62,2.058 -0.406,1.731 -0.244,1.352 -0.082,0.972 0,0.521 0,0" /></g><g
           transform="translate(368.4463,111.056)"
           id="g96"><path
             id="path98"
             style="fill:#231f20;fill-opacity:1;fill-rule:nonzero;stroke:none"
             d="M 0,0 C 0,0.487 -0.037,0.954 -0.109,1.402 -0.182,1.851 -0.306,2.25 -0.48,2.6 -0.656,2.95 -0.887,3.23 -1.173,3.439 -1.459,3.648 -1.815,3.753 -2.242,3.753 -2.456,3.753 -2.667,3.721 -2.876,3.657 -3.086,3.593 -3.299,3.488 -3.517,3.343 -3.734,3.198 -3.959,3.01 -4.189,2.78 -4.42,2.549 -4.663,2.263 -4.92,1.921 v -3.766 c 0.453,-0.572 0.885,-1.014 1.294,-1.326 0.41,-0.311 0.837,-0.467 1.281,-0.467 0.418,0 0.776,0.106 1.07,0.32 0.295,0.214 0.536,0.493 0.723,0.839 0.189,0.346 0.327,0.737 0.417,1.172 C -0.045,-0.871 0,-0.436 0,0 M 3.355,0.23 C 3.355,-0.786 3.247,-1.702 3.029,-2.518 2.812,-3.333 2.493,-4.027 2.075,-4.599 1.656,-5.171 1.135,-5.611 0.512,-5.918 c -0.623,-0.308 -1.336,-0.461 -2.139,-0.461 -0.333,0 -0.639,0.031 -0.916,0.095 -0.278,0.065 -0.547,0.163 -0.808,0.295 -0.26,0.133 -0.518,0.297 -0.774,0.493 -0.257,0.197 -0.521,0.427 -0.795,0.692 v -5.38 c 0,-0.086 -0.025,-0.162 -0.076,-0.231 -0.052,-0.068 -0.14,-0.126 -0.263,-0.173 -0.124,-0.047 -0.288,-0.083 -0.493,-0.109 -0.205,-0.025 -0.466,-0.038 -0.781,-0.038 -0.317,0 -0.577,0.013 -0.782,0.038 -0.205,0.026 -0.37,0.062 -0.494,0.109 -0.123,0.047 -0.211,0.105 -0.261,0.173 -0.052,0.069 -0.077,0.145 -0.077,0.231 V 5.777 c 0,0.085 0.021,0.16 0.063,0.224 0.043,0.064 0.117,0.118 0.225,0.161 0.106,0.042 0.247,0.074 0.422,0.095 0.175,0.022 0.395,0.033 0.66,0.033 0.256,0 0.471,-0.011 0.647,-0.033 0.175,-0.021 0.316,-0.053 0.423,-0.095 0.106,-0.043 0.181,-0.097 0.224,-0.161 0.043,-0.064 0.064,-0.139 0.064,-0.224 V 4.432 c 0.333,0.341 0.659,0.643 0.98,0.903 0.32,0.261 0.647,0.478 0.98,0.653 0.333,0.176 0.677,0.306 1.031,0.391 0.355,0.085 0.733,0.128 1.134,0.128 0.837,0 1.55,-0.164 2.139,-0.493 C 1.435,5.685 1.915,5.235 2.286,4.663 2.657,4.09 2.929,3.424 3.1,2.665 3.271,1.904 3.355,1.093 3.355,0.23" /></g><g
           transform="translate(380.9492,110.2616)"
           id="g100"><path
             id="path102"
             style="fill:#231f20;fill-opacity:1;fill-rule:nonzero;stroke:none"
             d="m 0,0 h -1.229 c -0.522,0 -0.966,-0.039 -1.333,-0.115 -0.368,-0.077 -0.667,-0.193 -0.897,-0.346 -0.23,-0.154 -0.399,-0.34 -0.506,-0.558 -0.106,-0.217 -0.16,-0.467 -0.16,-0.749 0,-0.478 0.151,-0.854 0.455,-1.127 0.303,-0.273 0.724,-0.41 1.262,-0.41 0.452,0 0.869,0.116 1.249,0.346 0.38,0.23 0.766,0.568 1.159,1.012 z M 3.164,-4.894 C 3.164,-5.013 3.121,-5.107 3.036,-5.175 2.95,-5.244 2.816,-5.292 2.633,-5.323 2.449,-5.353 2.178,-5.367 1.819,-5.367 1.435,-5.367 1.155,-5.353 0.98,-5.323 0.805,-5.292 0.681,-5.244 0.608,-5.175 0.536,-5.107 0.5,-5.013 0.5,-4.894 v 0.91 c -0.47,-0.504 -1.006,-0.896 -1.608,-1.179 -0.602,-0.281 -1.27,-0.422 -2.004,-0.422 -0.608,0 -1.164,0.079 -1.672,0.237 -0.509,0.158 -0.948,0.392 -1.32,0.704 -0.372,0.312 -0.66,0.699 -0.865,1.16 -0.205,0.461 -0.307,0.999 -0.307,1.614 0,0.666 0.13,1.245 0.39,1.736 0.261,0.49 0.65,0.896 1.166,1.217 0.517,0.32 1.159,0.557 1.928,0.71 0.769,0.154 1.661,0.231 2.678,0.231 H 0 v 0.692 c 0,0.358 -0.036,0.672 -0.108,0.941 -0.074,0.269 -0.193,0.493 -0.36,0.673 -0.166,0.179 -0.388,0.312 -0.666,0.397 -0.277,0.085 -0.621,0.128 -1.031,0.128 -0.538,0 -1.019,-0.06 -1.44,-0.179 C -4.028,4.556 -4.402,4.424 -4.727,4.279 -5.052,4.133 -5.322,4.001 -5.54,3.881 -5.758,3.762 -5.936,3.702 -6.072,3.702 c -0.094,0 -0.177,0.03 -0.249,0.09 -0.074,0.06 -0.133,0.145 -0.18,0.256 -0.047,0.111 -0.083,0.247 -0.109,0.41 -0.026,0.162 -0.038,0.341 -0.038,0.538 0,0.265 0.021,0.474 0.064,0.628 0.042,0.153 0.123,0.292 0.243,0.416 0.119,0.124 0.328,0.26 0.628,0.41 0.299,0.149 0.649,0.288 1.05,0.416 0.401,0.128 0.84,0.233 1.313,0.314 0.474,0.081 0.963,0.122 1.467,0.122 0.897,0 1.663,-0.088 2.299,-0.263 C 1.053,6.864 1.576,6.595 1.985,6.232 2.396,5.869 2.694,5.401 2.883,4.83 3.07,4.257 3.164,3.578 3.164,2.792 Z" /></g><g
           transform="translate(397.9473,105.3939)"
           id="g104"><path
             id="path106"
             style="fill:#231f20;fill-opacity:1;fill-rule:nonzero;stroke:none"
             d="M 0,0 C 0,-0.085 -0.023,-0.16 -0.07,-0.224 -0.117,-0.289 -0.203,-0.339 -0.326,-0.378 -0.45,-0.417 -0.619,-0.446 -0.832,-0.468 -1.046,-0.489 -1.323,-0.5 -1.665,-0.5 c -0.351,0 -0.634,0.009 -0.852,0.026 -0.217,0.017 -0.397,0.045 -0.538,0.083 -0.141,0.038 -0.25,0.092 -0.327,0.161 -0.077,0.067 -0.145,0.157 -0.205,0.268 L -7.392,6.059 V 0.013 c 0,-0.086 -0.025,-0.16 -0.076,-0.224 C -7.52,-0.275 -7.607,-0.329 -7.73,-0.372 -7.854,-0.415 -8.019,-0.446 -8.224,-0.468 -8.429,-0.489 -8.689,-0.5 -9.005,-0.5 c -0.316,0 -0.577,0.011 -0.782,0.032 -0.204,0.022 -0.369,0.053 -0.493,0.096 -0.123,0.043 -0.211,0.097 -0.262,0.161 -0.052,0.064 -0.077,0.138 -0.077,0.224 v 16.845 c 0,0.085 0.025,0.162 0.077,0.23 0.051,0.069 0.139,0.126 0.262,0.173 0.124,0.047 0.289,0.084 0.493,0.109 0.205,0.026 0.466,0.039 0.782,0.039 0.316,0 0.576,-0.013 0.781,-0.039 0.205,-0.025 0.37,-0.062 0.494,-0.109 0.123,-0.047 0.21,-0.104 0.262,-0.173 0.051,-0.068 0.076,-0.145 0.076,-0.23 V 6.828 l 3.382,4.547 c 0.069,0.103 0.146,0.192 0.232,0.269 0.085,0.077 0.198,0.137 0.339,0.18 0.14,0.042 0.316,0.074 0.525,0.095 0.209,0.022 0.476,0.033 0.801,0.033 0.315,0 0.583,-0.011 0.801,-0.033 0.217,-0.021 0.392,-0.053 0.524,-0.095 0.133,-0.043 0.225,-0.096 0.276,-0.16 0.051,-0.064 0.076,-0.143 0.076,-0.238 0,-0.128 -0.032,-0.264 -0.095,-0.409 -0.065,-0.146 -0.16,-0.3 -0.288,-0.462 L -4.163,6.764 -0.294,0.781 C -0.192,0.61 -0.117,0.463 -0.07,0.339 -0.023,0.215 0,0.103 0,0" /></g><g
           transform="translate(406.6328,112.3754)"
           id="g108"><path
             id="path110"
             style="fill:#231f20;fill-opacity:1;fill-rule:nonzero;stroke:none"
             d="m 0,0 c 0.025,0.905 -0.156,1.616 -0.545,2.133 -0.389,0.516 -0.988,0.775 -1.8,0.775 -0.409,0 -0.766,-0.077 -1.069,-0.231 C -3.717,2.523 -3.969,2.316 -4.17,2.056 -4.37,1.795 -4.524,1.488 -4.631,1.134 -4.737,0.779 -4.8,0.401 -4.816,0 Z M 3.126,-0.922 C 3.126,-1.315 3.038,-1.606 2.863,-1.793 2.688,-1.981 2.446,-2.075 2.14,-2.075 h -6.956 c 0,-0.487 0.057,-0.929 0.172,-1.326 0.116,-0.397 0.299,-0.735 0.551,-1.012 0.252,-0.278 0.576,-0.489 0.974,-0.634 0.396,-0.145 0.873,-0.218 1.428,-0.218 0.564,0 1.059,0.04 1.486,0.121 0.427,0.082 0.796,0.171 1.108,0.269 0.312,0.099 0.57,0.188 0.775,0.27 0.205,0.081 0.372,0.122 0.5,0.122 0.077,0 0.14,-0.016 0.192,-0.045 0.051,-0.031 0.094,-0.084 0.128,-0.16 0.034,-0.078 0.058,-0.187 0.07,-0.327 0.013,-0.141 0.02,-0.318 0.02,-0.532 0,-0.188 -0.005,-0.348 -0.013,-0.48 C 2.566,-6.16 2.554,-6.273 2.536,-6.367 2.52,-6.461 2.493,-6.54 2.46,-6.604 2.425,-6.667 2.381,-6.73 2.325,-6.79 2.27,-6.849 2.118,-6.93 1.87,-7.033 1.622,-7.135 1.307,-7.236 0.922,-7.334 0.538,-7.432 0.098,-7.518 -0.397,-7.59 c -0.496,-0.073 -1.025,-0.109 -1.588,-0.109 -1.017,0 -1.908,0.128 -2.671,0.385 -0.765,0.255 -1.404,0.644 -1.915,1.165 -0.513,0.521 -0.895,1.179 -1.147,1.973 -0.252,0.794 -0.378,1.725 -0.378,2.792 0,1.017 0.132,1.932 0.397,2.748 0.264,0.816 0.649,1.508 1.153,2.075 0.504,0.568 1.116,1.001 1.838,1.301 0.722,0.299 1.535,0.448 2.44,0.448 0.956,0 1.775,-0.141 2.454,-0.423 C 0.864,4.483 1.422,4.093 1.857,3.593 2.293,3.094 2.613,2.502 2.818,1.819 3.023,1.136 3.126,0.393 3.126,-0.41 Z" /></g><g
           transform="translate(418.9951,106.534)"
           id="g112"><path
             id="path114"
             style="fill:#231f20;fill-opacity:1;fill-rule:nonzero;stroke:none"
             d="m 0,0 c 0,-0.376 -0.023,-0.664 -0.07,-0.865 -0.047,-0.2 -0.11,-0.342 -0.187,-0.423 -0.076,-0.081 -0.189,-0.153 -0.339,-0.217 -0.149,-0.064 -0.325,-0.12 -0.525,-0.167 -0.201,-0.047 -0.419,-0.083 -0.653,-0.109 -0.236,-0.025 -0.472,-0.038 -0.711,-0.038 -0.641,0 -1.196,0.081 -1.665,0.243 -0.47,0.162 -0.859,0.412 -1.166,0.75 -0.308,0.337 -0.535,0.762 -0.679,1.274 -0.146,0.512 -0.218,1.119 -0.218,1.819 v 5.855 h -1.371 c -0.162,0 -0.286,0.1 -0.371,0.3 -0.086,0.201 -0.128,0.536 -0.128,1.006 0,0.248 0.011,0.457 0.031,0.628 0.022,0.171 0.054,0.305 0.097,0.403 0.043,0.098 0.096,0.169 0.16,0.211 0.064,0.043 0.139,0.065 0.224,0.065 h 1.358 v 2.549 c 0,0.085 0.024,0.162 0.07,0.231 0.047,0.068 0.132,0.125 0.256,0.173 0.124,0.046 0.291,0.081 0.5,0.102 0.209,0.021 0.468,0.032 0.776,0.032 0.315,0 0.578,-0.011 0.787,-0.032 0.209,-0.021 0.374,-0.056 0.493,-0.102 0.12,-0.048 0.205,-0.105 0.257,-0.173 0.051,-0.069 0.076,-0.146 0.076,-0.231 v -2.549 h 2.485 c 0.085,0 0.16,-0.022 0.225,-0.065 0.063,-0.042 0.117,-0.113 0.16,-0.211 0.042,-0.098 0.074,-0.232 0.096,-0.403 C -0.011,9.885 0,9.676 0,9.428 0,8.958 -0.043,8.623 -0.128,8.422 -0.214,8.222 -0.338,8.122 -0.5,8.122 H -2.998 V 2.754 c 0,-0.624 0.099,-1.091 0.295,-1.403 0.196,-0.311 0.547,-0.467 1.051,-0.467 0.171,0 0.324,0.014 0.461,0.045 0.136,0.029 0.257,0.064 0.365,0.102 0.106,0.038 0.196,0.073 0.268,0.102 0.073,0.031 0.139,0.045 0.2,0.045 0.05,0 0.099,-0.014 0.146,-0.045 C -0.165,1.104 -0.128,1.044 -0.103,0.954 -0.077,0.865 -0.054,0.743 -0.032,0.589 -0.011,0.436 0,0.239 0,0" /></g><g
           transform="translate(302.833,79.3812)"
           id="g116"><path
             id="path118"
             style="fill:#231f20;fill-opacity:1;fill-rule:nonzero;stroke:none"
             d="M 0,0 C -0.461,0.581 -0.903,1.025 -1.326,1.332 -1.749,1.64 -2.19,1.793 -2.651,1.793 -3.07,1.793 -3.432,1.689 -3.734,1.479 -4.037,1.27 -4.281,0.991 -4.465,0.641 -4.648,0.29 -4.785,-0.101 -4.874,-0.532 c -0.09,-0.431 -0.135,-0.873 -0.135,-1.325 0,-0.479 0.038,-0.944 0.115,-1.397 0.078,-0.453 0.204,-0.856 0.378,-1.21 0.175,-0.355 0.408,-0.639 0.699,-0.852 0.29,-0.214 0.657,-0.32 1.101,-0.32 0.222,0 0.438,0.032 0.647,0.095 0.21,0.065 0.423,0.169 0.64,0.314 0.218,0.145 0.443,0.335 0.673,0.571 0.231,0.234 0.483,0.523 0.756,0.864 z M 3.202,-7.635 C 3.202,-7.729 3.181,-7.808 3.139,-7.872 3.096,-7.936 3.023,-7.989 2.921,-8.032 2.818,-8.075 2.679,-8.104 2.504,-8.122 2.329,-8.139 2.113,-8.147 1.857,-8.147 c -0.273,0 -0.495,0.008 -0.666,0.025 -0.17,0.018 -0.309,0.047 -0.417,0.09 -0.106,0.043 -0.183,0.096 -0.23,0.16 -0.047,0.064 -0.07,0.143 -0.07,0.237 v 1.268 c -0.589,-0.632 -1.206,-1.123 -1.851,-1.473 -0.645,-0.35 -1.36,-0.525 -2.145,-0.525 -0.872,0 -1.609,0.169 -2.21,0.506 -0.603,0.338 -1.094,0.792 -1.474,1.364 -0.38,0.572 -0.655,1.241 -0.826,2.005 -0.171,0.764 -0.256,1.569 -0.256,2.415 0,1.016 0.108,1.929 0.326,2.741 0.218,0.812 0.536,1.503 0.955,2.075 0.418,0.572 0.939,1.012 1.563,1.32 0.623,0.307 1.34,0.461 2.152,0.461 0.641,0 1.221,-0.13 1.742,-0.391 C -1.029,3.871 -0.513,3.489 0,2.985 V 9.172 C 0,9.257 0.023,9.334 0.07,9.403 0.117,9.471 0.202,9.528 0.326,9.576 0.45,9.623 0.614,9.659 0.819,9.685 1.024,9.71 1.285,9.723 1.602,9.723 1.917,9.723 2.178,9.71 2.383,9.685 2.588,9.659 2.75,9.623 2.869,9.576 2.989,9.528 3.074,9.471 3.126,9.403 3.177,9.334 3.202,9.257 3.202,9.172 Z" /></g><g
           transform="translate(316.7061,78.7152)"
           id="g120"><path
             id="path122"
             style="fill:#231f20;fill-opacity:1;fill-rule:nonzero;stroke:none"
             d="m 0,0 c 0.025,0.905 -0.156,1.616 -0.545,2.133 -0.389,0.516 -0.988,0.775 -1.8,0.775 -0.409,0 -0.766,-0.077 -1.069,-0.231 C -3.717,2.523 -3.969,2.316 -4.17,2.056 -4.37,1.795 -4.524,1.488 -4.631,1.134 -4.737,0.779 -4.8,0.401 -4.816,0 Z M 3.126,-0.922 C 3.126,-1.315 3.038,-1.606 2.863,-1.793 2.688,-1.981 2.446,-2.075 2.14,-2.075 h -6.956 c 0,-0.487 0.057,-0.929 0.172,-1.326 0.116,-0.397 0.299,-0.735 0.551,-1.012 0.252,-0.278 0.576,-0.489 0.974,-0.634 0.396,-0.145 0.873,-0.218 1.428,-0.218 0.564,0 1.059,0.04 1.486,0.121 0.427,0.082 0.796,0.171 1.108,0.269 0.312,0.099 0.57,0.188 0.775,0.27 0.205,0.081 0.372,0.122 0.5,0.122 0.077,0 0.14,-0.016 0.192,-0.045 0.051,-0.031 0.094,-0.084 0.128,-0.16 0.034,-0.078 0.058,-0.187 0.07,-0.327 0.013,-0.141 0.02,-0.318 0.02,-0.532 0,-0.188 -0.005,-0.348 -0.013,-0.48 C 2.566,-6.16 2.554,-6.273 2.536,-6.367 2.52,-6.461 2.493,-6.54 2.46,-6.604 2.425,-6.667 2.381,-6.73 2.325,-6.79 2.27,-6.849 2.118,-6.93 1.87,-7.033 1.622,-7.135 1.307,-7.236 0.922,-7.334 0.538,-7.432 0.098,-7.518 -0.397,-7.59 c -0.496,-0.073 -1.025,-0.109 -1.588,-0.109 -1.017,0 -1.908,0.128 -2.671,0.385 -0.765,0.255 -1.404,0.644 -1.915,1.165 -0.513,0.521 -0.895,1.179 -1.147,1.973 -0.252,0.794 -0.378,1.725 -0.378,2.792 0,1.017 0.132,1.932 0.397,2.748 0.264,0.816 0.649,1.508 1.153,2.075 0.504,0.568 1.116,1.001 1.838,1.301 0.722,0.299 1.535,0.448 2.44,0.448 0.956,0 1.775,-0.141 2.454,-0.423 C 0.864,4.483 1.422,4.093 1.857,3.593 2.293,3.094 2.613,2.502 2.818,1.819 3.023,1.136 3.126,0.393 3.126,-0.41 Z" /></g><g
           transform="translate(329.8232,82.1097)"
           id="g124"><path
             id="path126"
             style="fill:#231f20;fill-opacity:1;fill-rule:nonzero;stroke:none"
             d="m 0,0 c 0,-0.308 -0.009,-0.56 -0.025,-0.756 -0.018,-0.196 -0.043,-0.35 -0.078,-0.461 -0.034,-0.111 -0.079,-0.188 -0.134,-0.23 -0.056,-0.043 -0.126,-0.065 -0.211,-0.065 -0.069,0 -0.146,0.015 -0.231,0.045 -0.086,0.03 -0.181,0.062 -0.288,0.096 -0.107,0.035 -0.224,0.066 -0.352,0.097 -0.128,0.029 -0.269,0.045 -0.423,0.045 -0.179,0 -0.359,-0.037 -0.538,-0.109 -0.179,-0.073 -0.366,-0.186 -0.557,-0.34 -0.192,-0.154 -0.393,-0.359 -0.602,-0.615 -0.209,-0.256 -0.434,-0.572 -0.673,-0.948 v -7.122 c 0,-0.086 -0.026,-0.16 -0.076,-0.224 -0.052,-0.064 -0.14,-0.118 -0.263,-0.161 -0.124,-0.043 -0.288,-0.074 -0.493,-0.096 -0.205,-0.021 -0.466,-0.031 -0.782,-0.031 -0.316,0 -0.577,0.01 -0.782,0.031 -0.204,0.022 -0.369,0.053 -0.493,0.096 -0.123,0.043 -0.211,0.097 -0.262,0.161 -0.051,0.064 -0.077,0.138 -0.077,0.224 V 1.063 c 0,0.085 0.022,0.161 0.064,0.225 0.043,0.064 0.12,0.117 0.231,0.16 0.11,0.042 0.254,0.074 0.429,0.095 0.175,0.022 0.394,0.033 0.659,0.033 0.273,0 0.5,-0.011 0.68,-0.033 0.178,-0.021 0.317,-0.053 0.416,-0.095 0.097,-0.043 0.169,-0.096 0.211,-0.16 0.043,-0.064 0.064,-0.14 0.064,-0.225 v -1.421 c 0.299,0.426 0.581,0.778 0.846,1.056 0.264,0.278 0.516,0.498 0.756,0.66 0.238,0.162 0.477,0.275 0.716,0.339 0.24,0.064 0.479,0.096 0.718,0.096 0.111,0 0.231,-0.006 0.359,-0.019 0.128,-0.013 0.26,-0.034 0.397,-0.064 0.137,-0.03 0.256,-0.064 0.358,-0.102 0.103,-0.039 0.178,-0.079 0.225,-0.122 0.047,-0.043 0.081,-0.09 0.103,-0.141 0.02,-0.051 0.04,-0.121 0.057,-0.211 C -0.034,1.044 -0.021,0.91 -0.013,0.73 -0.004,0.551 0,0.308 0,0" /></g><g
           transform="translate(348.1162,72.6429)"
           id="g128"><path
             id="path130"
             style="fill:#231f20;fill-opacity:1;fill-rule:nonzero;stroke:none"
             d="m 0,0 c 0,-0.248 -0.011,-0.457 -0.032,-0.627 -0.022,-0.171 -0.054,-0.31 -0.096,-0.417 -0.043,-0.107 -0.097,-0.182 -0.16,-0.224 -0.065,-0.043 -0.135,-0.064 -0.212,-0.064 h -9.773 c -0.342,0 -0.605,0.098 -0.789,0.294 -0.183,0.197 -0.275,0.483 -0.275,0.859 v 0.563 c 0,0.171 0.011,0.327 0.032,0.468 0.022,0.141 0.058,0.284 0.109,0.429 0.051,0.145 0.126,0.303 0.224,0.474 0.098,0.171 0.22,0.376 0.366,0.615 l 6.43,10.197 h -6.38 c -0.102,0 -0.19,0.023 -0.262,0.07 -0.073,0.047 -0.132,0.122 -0.179,0.224 -0.048,0.103 -0.082,0.24 -0.103,0.41 -0.021,0.171 -0.032,0.376 -0.032,0.615 0,0.257 0.011,0.472 0.032,0.647 0.021,0.175 0.055,0.316 0.103,0.423 0.047,0.107 0.106,0.181 0.179,0.224 0.072,0.043 0.16,0.064 0.262,0.064 h 9.16 c 0.35,0 0.608,-0.09 0.775,-0.269 0.166,-0.179 0.25,-0.431 0.25,-0.756 v -0.627 c 0,-0.231 -0.011,-0.429 -0.032,-0.596 -0.022,-0.166 -0.061,-0.329 -0.116,-0.487 -0.055,-0.158 -0.13,-0.32 -0.224,-0.487 -0.094,-0.166 -0.214,-0.365 -0.359,-0.595 L -7.43,1.371 h 6.93 c 0.162,0 0.286,-0.102 0.372,-0.308 C -0.043,0.858 0,0.504 0,0" /></g><g
           transform="translate(361.1182,71.7464)"
           id="g132"><path
             id="path134"
             style="fill:#231f20;fill-opacity:1;fill-rule:nonzero;stroke:none"
             d="m 0,0 c 0,-0.085 -0.021,-0.16 -0.063,-0.224 -0.043,-0.064 -0.119,-0.118 -0.225,-0.16 -0.107,-0.043 -0.248,-0.075 -0.423,-0.096 -0.175,-0.021 -0.394,-0.032 -0.659,-0.032 -0.282,0 -0.511,0.011 -0.686,0.032 -0.174,0.021 -0.314,0.053 -0.416,0.096 -0.102,0.042 -0.175,0.096 -0.217,0.16 C -2.732,-0.16 -2.754,-0.085 -2.754,0 v 1.319 c -0.632,-0.683 -1.274,-1.195 -1.928,-1.537 -0.653,-0.341 -1.33,-0.512 -2.03,-0.512 -0.786,0 -1.446,0.128 -1.979,0.384 -0.535,0.256 -0.965,0.606 -1.294,1.051 -0.329,0.443 -0.564,0.958 -0.704,1.543 -0.142,0.585 -0.212,1.313 -0.212,2.184 v 6.995 c 0,0.085 0.023,0.16 0.07,0.224 0.047,0.064 0.133,0.117 0.257,0.16 0.123,0.043 0.29,0.075 0.499,0.096 0.209,0.021 0.468,0.032 0.775,0.032 0.316,0 0.576,-0.011 0.781,-0.032 0.206,-0.021 0.37,-0.053 0.494,-0.096 0.124,-0.043 0.212,-0.096 0.262,-0.16 0.051,-0.064 0.077,-0.139 0.077,-0.224 V 4.97 c 0,-0.597 0.039,-1.054 0.116,-1.37 0.076,-0.316 0.194,-0.588 0.351,-0.814 0.158,-0.226 0.36,-0.401 0.603,-0.525 0.243,-0.124 0.527,-0.186 0.851,-0.186 0.411,0 0.823,0.15 1.237,0.448 0.414,0.299 0.856,0.735 1.326,1.307 v 7.597 c 0,0.085 0.023,0.16 0.07,0.224 0.047,0.064 0.132,0.117 0.256,0.16 0.124,0.043 0.288,0.075 0.493,0.096 0.205,0.021 0.466,0.032 0.782,0.032 0.316,0 0.577,-0.011 0.782,-0.032 0.205,-0.021 0.367,-0.053 0.486,-0.096 0.12,-0.043 0.205,-0.096 0.257,-0.16 C -0.025,11.587 0,11.512 0,11.427 Z" /></g><g
           transform="translate(374.9785,71.7337)"
           id="g136"><path
             id="path138"
             style="fill:#231f20;fill-opacity:1;fill-rule:nonzero;stroke:none"
             d="M 0,0 C 0,-0.085 -0.023,-0.16 -0.07,-0.224 -0.117,-0.289 -0.203,-0.339 -0.326,-0.378 -0.45,-0.417 -0.619,-0.446 -0.832,-0.468 -1.046,-0.489 -1.323,-0.5 -1.665,-0.5 c -0.351,0 -0.634,0.009 -0.852,0.026 -0.217,0.017 -0.397,0.045 -0.538,0.083 -0.141,0.038 -0.25,0.092 -0.327,0.161 -0.077,0.067 -0.145,0.157 -0.205,0.268 L -7.392,6.059 V 0.013 c 0,-0.086 -0.025,-0.16 -0.076,-0.224 C -7.52,-0.275 -7.607,-0.329 -7.73,-0.372 -7.854,-0.415 -8.019,-0.446 -8.224,-0.468 -8.429,-0.489 -8.689,-0.5 -9.005,-0.5 c -0.316,0 -0.577,0.011 -0.782,0.032 -0.204,0.022 -0.369,0.053 -0.493,0.096 -0.123,0.043 -0.211,0.097 -0.262,0.161 -0.052,0.064 -0.077,0.138 -0.077,0.224 v 16.845 c 0,0.085 0.025,0.162 0.077,0.23 0.051,0.069 0.139,0.126 0.262,0.173 0.124,0.047 0.289,0.084 0.493,0.109 0.205,0.026 0.466,0.039 0.782,0.039 0.316,0 0.576,-0.013 0.781,-0.039 0.205,-0.025 0.37,-0.062 0.494,-0.109 0.123,-0.047 0.21,-0.104 0.262,-0.173 0.051,-0.068 0.076,-0.145 0.076,-0.23 V 6.828 l 3.382,4.547 c 0.069,0.103 0.146,0.192 0.232,0.269 0.085,0.077 0.198,0.137 0.339,0.18 0.14,0.042 0.316,0.074 0.525,0.095 0.209,0.022 0.476,0.033 0.801,0.033 0.315,0 0.583,-0.011 0.801,-0.033 0.217,-0.021 0.392,-0.053 0.524,-0.095 0.133,-0.043 0.225,-0.096 0.276,-0.16 0.051,-0.064 0.076,-0.143 0.076,-0.238 0,-0.128 -0.032,-0.264 -0.095,-0.409 -0.065,-0.146 -0.16,-0.3 -0.288,-0.462 L -4.163,6.764 -0.294,0.781 C -0.192,0.61 -0.117,0.463 -0.07,0.339 -0.023,0.215 0,0.103 0,0" /></g><g
           transform="translate(387.4687,71.7464)"
           id="g140"><path
             id="path142"
             style="fill:#231f20;fill-opacity:1;fill-rule:nonzero;stroke:none"
             d="m 0,0 c 0,-0.085 -0.021,-0.16 -0.063,-0.224 -0.043,-0.064 -0.119,-0.118 -0.225,-0.16 -0.107,-0.043 -0.248,-0.075 -0.423,-0.096 -0.175,-0.021 -0.394,-0.032 -0.659,-0.032 -0.282,0 -0.511,0.011 -0.686,0.032 -0.174,0.021 -0.314,0.053 -0.416,0.096 -0.102,0.042 -0.175,0.096 -0.217,0.16 C -2.732,-0.16 -2.754,-0.085 -2.754,0 v 1.319 c -0.632,-0.683 -1.274,-1.195 -1.928,-1.537 -0.653,-0.341 -1.33,-0.512 -2.03,-0.512 -0.786,0 -1.446,0.128 -1.979,0.384 -0.535,0.256 -0.965,0.606 -1.294,1.051 -0.329,0.443 -0.564,0.958 -0.704,1.543 -0.142,0.585 -0.212,1.313 -0.212,2.184 v 6.995 c 0,0.085 0.023,0.16 0.07,0.224 0.047,0.064 0.133,0.117 0.257,0.16 0.123,0.043 0.29,0.075 0.499,0.096 0.209,0.021 0.468,0.032 0.775,0.032 0.316,0 0.576,-0.011 0.781,-0.032 0.206,-0.021 0.37,-0.053 0.494,-0.096 0.124,-0.043 0.212,-0.096 0.262,-0.16 0.051,-0.064 0.077,-0.139 0.077,-0.224 V 4.97 c 0,-0.597 0.039,-1.054 0.116,-1.37 0.076,-0.316 0.194,-0.588 0.351,-0.814 0.158,-0.226 0.36,-0.401 0.603,-0.525 0.243,-0.124 0.527,-0.186 0.851,-0.186 0.411,0 0.823,0.15 1.237,0.448 0.414,0.299 0.856,0.735 1.326,1.307 v 7.597 c 0,0.085 0.023,0.16 0.07,0.224 0.047,0.064 0.132,0.117 0.256,0.16 0.124,0.043 0.288,0.075 0.493,0.096 0.205,0.021 0.466,0.032 0.782,0.032 0.316,0 0.577,-0.011 0.782,-0.032 0.205,-0.021 0.367,-0.053 0.486,-0.096 0.12,-0.043 0.205,-0.096 0.257,-0.16 C -0.025,11.587 0,11.512 0,11.427 Z" /></g><g
           transform="translate(401.624,71.7464)"
           id="g144"><path
             id="path146"
             style="fill:#231f20;fill-opacity:1;fill-rule:nonzero;stroke:none"
             d="m 0,0 c 0,-0.085 -0.025,-0.16 -0.077,-0.224 -0.051,-0.064 -0.137,-0.118 -0.256,-0.16 -0.12,-0.043 -0.284,-0.075 -0.493,-0.096 -0.21,-0.021 -0.468,-0.032 -0.776,-0.032 -0.315,0 -0.578,0.011 -0.787,0.032 -0.21,0.021 -0.374,0.053 -0.494,0.096 -0.119,0.042 -0.204,0.096 -0.256,0.16 -0.05,0.064 -0.077,0.139 -0.077,0.224 v 6.521 c 0,0.554 -0.04,0.99 -0.121,1.306 -0.081,0.316 -0.199,0.587 -0.352,0.813 -0.154,0.227 -0.353,0.402 -0.596,0.526 -0.243,0.123 -0.527,0.186 -0.852,0.186 -0.41,0 -0.824,-0.15 -1.243,-0.449 C -6.798,8.604 -7.233,8.168 -7.687,7.596 V 0 c 0,-0.085 -0.025,-0.16 -0.076,-0.224 -0.051,-0.064 -0.139,-0.118 -0.262,-0.16 -0.124,-0.043 -0.288,-0.075 -0.494,-0.096 -0.205,-0.021 -0.465,-0.032 -0.781,-0.032 -0.316,0 -0.577,0.011 -0.782,0.032 -0.204,0.021 -0.369,0.053 -0.493,0.096 -0.123,0.042 -0.211,0.096 -0.262,0.16 -0.052,0.064 -0.077,0.139 -0.077,0.224 v 11.427 c 0,0.085 0.021,0.16 0.063,0.224 0.043,0.064 0.121,0.117 0.232,0.16 0.11,0.043 0.254,0.075 0.429,0.096 0.174,0.021 0.394,0.032 0.659,0.032 0.273,0 0.5,-0.011 0.679,-0.032 0.179,-0.021 0.318,-0.053 0.416,-0.096 0.098,-0.043 0.169,-0.096 0.211,-0.16 0.043,-0.064 0.065,-0.139 0.065,-0.224 v -1.32 c 0.632,0.683 1.274,1.196 1.928,1.538 0.653,0.341 1.335,0.512 2.043,0.512 0.777,0 1.432,-0.128 1.966,-0.385 0.534,-0.256 0.965,-0.604 1.294,-1.043 0.328,-0.44 0.566,-0.955 0.711,-1.544 C -0.072,8.596 0,7.887 0,7.058 Z" /></g><g
           transform="translate(408.4902,80.9955)"
           id="g148"><path
             id="path150"
             style="fill:#231f20;fill-opacity:1;fill-rule:nonzero;stroke:none"
             d="m 0,0 v -9.249 c 0,-0.085 -0.025,-0.16 -0.077,-0.224 -0.051,-0.064 -0.137,-0.118 -0.256,-0.16 -0.12,-0.043 -0.286,-0.075 -0.5,-0.096 -0.213,-0.021 -0.474,-0.032 -0.781,-0.032 -0.308,0 -0.566,0.011 -0.775,0.032 -0.21,0.021 -0.376,0.053 -0.5,0.096 -0.124,0.042 -0.209,0.096 -0.256,0.16 -0.046,0.064 -0.07,0.139 -0.07,0.224 V 0 H -4.65 c -0.162,0 -0.284,0.1 -0.365,0.301 -0.082,0.2 -0.122,0.536 -0.122,1.006 0,0.247 0.011,0.456 0.033,0.627 0.02,0.171 0.05,0.305 0.089,0.404 0.038,0.098 0.089,0.168 0.154,0.211 0.064,0.043 0.138,0.064 0.224,0.064 h 1.422 v 0.961 c 0,0.777 0.076,1.458 0.231,2.043 0.153,0.585 0.392,1.071 0.716,1.46 0.325,0.389 0.74,0.681 1.244,0.878 0.503,0.196 1.101,0.295 1.793,0.295 0.333,0 0.66,-0.03 0.98,-0.09 C 2.069,8.1 2.304,8.04 2.453,7.98 2.603,7.921 2.707,7.863 2.767,7.808 2.827,7.752 2.874,7.671 2.908,7.564 2.942,7.458 2.966,7.321 2.979,7.154 2.991,6.988 2.998,6.781 2.998,6.533 2.998,6.285 2.989,6.086 2.972,5.937 2.955,5.788 2.929,5.672 2.896,5.591 2.861,5.51 2.822,5.455 2.78,5.425 2.737,5.395 2.69,5.38 2.639,5.38 2.588,5.38 2.525,5.395 2.453,5.425 2.381,5.455 2.291,5.487 2.185,5.521 2.077,5.555 1.953,5.587 1.812,5.617 1.672,5.647 1.503,5.662 1.307,5.662 1.076,5.662 0.878,5.625 0.711,5.553 0.545,5.48 0.408,5.365 0.301,5.207 0.194,5.049 0.113,4.844 0.058,4.592 0.002,4.34 -0.025,4.031 -0.025,3.664 V 2.613 h 4.33 v 2.549 c 0,0.086 0.025,0.162 0.076,0.231 C 4.433,5.461 4.518,5.519 4.638,5.566 4.757,5.613 4.921,5.647 5.131,5.668 5.34,5.689 5.598,5.7 5.905,5.7 6.222,5.7 6.482,5.689 6.687,5.668 6.892,5.647 7.057,5.613 7.18,5.566 7.304,5.519 7.392,5.461 7.442,5.393 7.494,5.324 7.52,5.248 7.52,5.162 V 2.613 h 2.485 c 0.085,0 0.16,-0.021 0.224,-0.064 0.064,-0.043 0.117,-0.113 0.16,-0.211 0.043,-0.099 0.075,-0.233 0.096,-0.404 0.021,-0.171 0.033,-0.38 0.033,-0.627 0,-0.47 -0.043,-0.806 -0.129,-1.006 C 10.304,0.1 10.18,0 10.018,0 H 7.52 v -5.368 c 0,-0.623 0.095,-1.09 0.288,-1.403 0.192,-0.311 0.545,-0.467 1.056,-0.467 0.171,0 0.325,0.015 0.462,0.045 0.136,0.03 0.256,0.064 0.359,0.103 0.102,0.038 0.192,0.072 0.268,0.102 0.077,0.03 0.146,0.045 0.205,0.045 0.052,0 0.099,-0.015 0.142,-0.045 0.042,-0.03 0.078,-0.09 0.108,-0.179 0.03,-0.09 0.056,-0.212 0.077,-0.366 0.021,-0.153 0.033,-0.35 0.033,-0.589 0,-0.376 -0.025,-0.666 -0.072,-0.871 -0.047,-0.205 -0.11,-0.346 -0.191,-0.423 C 10.173,-9.492 10.061,-9.563 9.915,-9.627 9.77,-9.691 9.597,-9.747 9.396,-9.793 9.195,-9.84 8.979,-9.877 8.749,-9.902 8.519,-9.928 8.284,-9.941 8.045,-9.941 c -0.649,0 -1.209,0.082 -1.679,0.244 -0.47,0.162 -0.857,0.411 -1.165,0.749 -0.307,0.337 -0.534,0.762 -0.679,1.275 -0.145,0.512 -0.217,1.118 -0.217,1.819 V 0 Z" /></g><g
           transform="translate(122.8016,6.0643)"
           id="g152"><path
             id="path154"
             style="fill:#009ad7;fill-opacity:1;fill-rule:nonzero;stroke:none"
             d="m 0,0 h -110.551 c -5.121,0 -9.273,4.152 -9.273,9.273 v 110.551 c 0,5.121 4.152,9.273 9.273,9.273 H 0 c 5.121,0 9.273,-4.152 9.273,-9.273 V 9.273 C 9.273,4.152 5.121,0 0,0" /></g><g
           transform="translate(132.0761,109.079)"
           id="g156"><path
             id="path158"
             style="fill:#ffffff;fill-opacity:1;fill-rule:nonzero;stroke:none"
             d="m 0,0 h -22.13 -0.081 V 4.907 H -21.37 0 Z" /></g><g
           transform="translate(132.0761,109.079)"
           id="g160"><path
             id="path162"
             style="fill:none;stroke:#ffffff;stroke-width:1.97599995;stroke-linecap:butt;stroke-linejoin:miter;stroke-miterlimit:10;stroke-dasharray:none;stroke-opacity:1"
             d="m 0,0 h -22.13 -0.081 V 4.907 H -21.37 0 Z" /></g><g
           transform="translate(2.9778,61.4064)"
           id="g164"><path
             id="path166"
             style="fill:#ffffff;fill-opacity:1;fill-rule:nonzero;stroke:none"
             d="m 0,0 h 70.606 l 35.162,13.207 H 129.1 v 4.907 H 104.877 L 69.715,4.907 H 0 Z" /></g><g
           transform="translate(2.9778,61.4064)"
           id="g168"><path
             id="path170"
             style="fill:none;stroke:#ffffff;stroke-width:1.97599995;stroke-linecap:butt;stroke-linejoin:miter;stroke-miterlimit:10;stroke-dasharray:none;stroke-opacity:1"
             d="m 0,0 h 70.606 l 35.162,13.207 H 129.1 v 4.907 H 104.877 L 69.715,4.907 H 0 Z" /></g><g
           transform="translate(74.681,27.2375)"
           id="g172"><path
             id="path174"
             style="fill:#ffffff;fill-opacity:1;fill-rule:nonzero;stroke:none"
             d="M 0,0 H -44.134 V 4.907 H -1.583 L 34.099,30.605 H 57.397 V 25.697 H 35.682 Z" /></g><g
           transform="translate(74.681,27.2375)"
           id="g176"><path
             id="path178"
             style="fill:none;stroke:#ffffff;stroke-width:1.97599995;stroke-linecap:butt;stroke-linejoin:miter;stroke-miterlimit:10;stroke-dasharray:none;stroke-opacity:1"
             d="M 0,0 H -44.134 V 4.907 H -1.583 L 34.099,30.605 H 57.397 V 25.697 H 35.682 Z" /></g><g
           transform="translate(45.0206,29.4728)"
           id="g180"><path
             id="path182"
             style="fill:none;stroke:#ffffff;stroke-width:6.71700001;stroke-linecap:butt;stroke-linejoin:miter;stroke-miterlimit:10;stroke-dasharray:none;stroke-opacity:1"
             d="m 0,0 c 0,-8.888 -7.205,-16.093 -16.093,-16.093 -8.888,0 -16.093,7.205 -16.093,16.093 0,8.888 7.205,16.093 16.093,16.093 C -7.205,16.093 0,8.888 0,0 Z" /></g><g
           transform="translate(53.1001,114.0041)"
           id="g184"><path
             id="path186"
             style="fill:#ffffff;fill-opacity:1;fill-rule:nonzero;stroke:#ffffff;stroke-width:1.97599995;stroke-linecap:butt;stroke-linejoin:miter;stroke-miterlimit:10;stroke-dasharray:none;stroke-opacity:1"
             d="m 0,0 h -33.1 c -6.768,0 -12.855,-2.973 -17.024,-7.682 l 0.002,-9.751 c 2.262,7.249 9.037,12.526 17.022,12.526 h 32.929 l -14.908,-14.022 3.347,-3.594 L 9.85,-2.458 -11.732,17.611 -15.079,14.017 0,0" /></g><g
           transform="translate(41.8555,29.4728)"
           id="g188"><path
             id="path190"
             style="fill:#33b999;fill-opacity:1;fill-rule:nonzero;stroke:none"
             d="m 0,0 c 0,-7.14 -5.788,-12.928 -12.928,-12.928 -7.14,0 -12.928,5.788 -12.928,12.928 0,7.14 5.788,12.928 12.928,12.928 C -5.788,12.928 0,7.14 0,0" /></g><g
           transform="translate(34.8447,29.4728)"
           id="g192"><path
             id="path194"
             style="fill:#231f20;fill-opacity:1;fill-rule:nonzero;stroke:none"
             d="m 0,0 c 0,-3.268 -2.649,-5.917 -5.917,-5.917 -3.268,0 -5.917,2.649 -5.917,5.917 0,3.268 2.649,5.917 5.917,5.917 C -2.649,5.917 0,3.268 0,0" /></g><g
           transform="translate(110.8611,110.8886)"
           id="g196"><path
             id="path198"
             style="fill:none;stroke:#ffffff;stroke-width:6.71700001;stroke-linecap:butt;stroke-linejoin:miter;stroke-miterlimit:10;stroke-dasharray:none;stroke-opacity:1"
             d="m 0,0 c 0,-8.888 -7.205,-16.093 -16.093,-16.093 -8.888,0 -16.093,7.205 -16.093,16.093 0,8.888 7.205,16.093 16.093,16.093 C -7.205,16.093 0,8.888 0,0 Z" /></g><g
           transform="translate(107.696,110.8886)"
           id="g200"><path
             id="path202"
             style="fill:#33b999;fill-opacity:1;fill-rule:nonzero;stroke:none"
             d="m 0,0 c 0,-7.14 -5.788,-12.928 -12.928,-12.928 -7.14,0 -12.928,5.788 -12.928,12.928 0,7.14 5.788,12.928 12.928,12.928 C -5.788,12.928 0,7.14 0,0" /></g><g
           transform="translate(100.6852,110.8886)"
           id="g204"><path
             id="path206"
             style="fill:#231f20;fill-opacity:1;fill-rule:nonzero;stroke:none"
             d="m 0,0 c 0,-3.268 -2.649,-5.917 -5.917,-5.917 -3.268,0 -5.917,2.649 -5.917,5.917 0,3.268 2.649,5.917 5.917,5.917 C -2.649,5.917 0,3.268 0,0" /></g><path
           id="path208"
           style="fill:#33b999;fill-opacity:1;fill-rule:nonzero;stroke:none"
           d="M 286.356,73.617 H 132.078 v 6.902 h 154.278 z" /><g
           transform="translate(186.2148,46.2196)"
           id="g210"><path
             id="path212"
             style="fill:#009ad7;fill-opacity:1;fill-rule:nonzero;stroke:none"
             d="m 0,0 c 0,-0.711 -0.031,-1.323 -0.092,-1.837 -0.061,-0.515 -0.147,-0.925 -0.257,-1.231 -0.11,-0.307 -0.245,-0.521 -0.404,-0.643 -0.16,-0.123 -0.349,-0.184 -0.57,-0.184 -0.318,0 -0.833,0.221 -1.543,0.662 -0.71,0.441 -1.653,0.919 -2.828,1.432 -1.176,0.515 -2.578,0.992 -4.207,1.433 -1.629,0.441 -3.521,0.662 -5.676,0.662 -2.302,0 -4.384,-0.398 -6.246,-1.194 -1.861,-0.796 -3.453,-1.923 -4.776,-3.38 -1.322,-1.458 -2.338,-3.209 -3.049,-5.254 -0.71,-2.045 -1.065,-4.305 -1.065,-6.778 0,-2.718 0.361,-5.113 1.084,-7.182 0.722,-2.07 1.732,-3.803 3.03,-5.199 1.298,-1.396 2.86,-2.45 4.684,-3.16 1.825,-0.71 3.84,-1.065 6.044,-1.065 1.078,0 2.143,0.122 3.196,0.367 1.053,0.245 2.033,0.613 2.939,1.103 v 11.021 h -9 c -0.441,0 -0.785,0.276 -1.029,0.826 -0.245,0.552 -0.368,1.489 -0.368,2.811 0,0.686 0.031,1.262 0.092,1.727 0.061,0.465 0.153,0.838 0.276,1.121 0.122,0.281 0.269,0.489 0.441,0.624 0.171,0.134 0.367,0.202 0.588,0.202 h 16.054 c 0.391,0 0.741,-0.068 1.047,-0.202 0.306,-0.135 0.575,-0.337 0.808,-0.606 0.233,-0.27 0.41,-0.595 0.533,-0.973 0.122,-0.38 0.184,-0.815 0.184,-1.305 v -18.92 c 0,-0.734 -0.129,-1.378 -0.386,-1.929 -0.257,-0.551 -0.784,-0.986 -1.58,-1.304 -0.796,-0.319 -1.781,-0.649 -2.957,-0.992 -1.176,-0.343 -2.394,-0.637 -3.655,-0.882 -1.262,-0.245 -2.536,-0.428 -3.821,-0.551 -1.286,-0.122 -2.578,-0.184 -3.876,-0.184 -3.797,0 -7.195,0.546 -10.195,1.635 -3.001,1.09 -5.542,2.67 -7.623,4.739 -2.082,2.069 -3.674,4.593 -4.776,7.569 -1.103,2.975 -1.653,6.349 -1.653,10.121 0,3.894 0.587,7.39 1.763,10.489 1.176,3.098 2.841,5.731 4.996,7.898 2.155,2.168 4.758,3.827 7.807,4.979 3.049,1.15 6.448,1.726 10.195,1.726 2.058,0 3.931,-0.141 5.621,-0.422 C -8.56,7.488 -7.085,7.146 -5.823,6.741 -4.562,6.337 -3.515,5.902 -2.682,5.437 -1.85,4.972 -1.268,4.567 -0.937,4.225 -0.606,3.881 -0.367,3.398 -0.22,2.773 -0.074,2.148 0,1.224 0,0" /></g><g
           transform="translate(213.144,44.5292)"
           id="g214"><path
             id="path216"
             style="fill:#009ad7;fill-opacity:1;fill-rule:nonzero;stroke:none"
             d="M 0,0 H -0.037 L -6.76,-20.206 H 6.723 Z m 21.823,-34.864 c 0.294,-0.882 0.477,-1.58 0.551,-2.095 0.073,-0.514 -0.025,-0.899 -0.294,-1.157 -0.27,-0.257 -0.747,-0.416 -1.433,-0.478 -0.687,-0.06 -1.629,-0.092 -2.829,-0.092 -1.249,0 -2.223,0.019 -2.921,0.056 -0.698,0.036 -1.23,0.11 -1.598,0.22 -0.367,0.11 -0.625,0.264 -0.771,0.46 -0.148,0.195 -0.271,0.452 -0.367,0.771 l -3.197,9.552 H -8.891 l -3.012,-9.295 c -0.098,-0.343 -0.227,-0.631 -0.386,-0.863 -0.16,-0.234 -0.417,-0.417 -0.772,-0.551 -0.355,-0.135 -0.857,-0.227 -1.506,-0.275 -0.649,-0.049 -1.5,-0.075 -2.553,-0.075 -1.127,0 -2.009,0.038 -2.645,0.111 -0.637,0.073 -1.078,0.251 -1.323,0.533 -0.245,0.281 -0.33,0.68 -0.257,1.193 0.074,0.515 0.257,1.201 0.551,2.058 L -6.135,7.385 c 0.147,0.416 0.318,0.753 0.514,1.01 0.196,0.257 0.508,0.453 0.937,0.587 0.428,0.135 1.022,0.221 1.782,0.258 0.758,0.036 1.763,0.055 3.012,0.055 1.445,0 2.596,-0.019 3.453,-0.055 C 4.42,9.203 5.088,9.117 5.566,8.982 6.043,8.848 6.386,8.646 6.594,8.377 6.802,8.106 6.98,7.739 7.127,7.274 Z" /></g><g
           transform="translate(256.3848,24.5438)"
           id="g218"><path
             id="path220"
             style="fill:#009ad7;fill-opacity:1;fill-rule:nonzero;stroke:none"
             d="m 0,0 c 0,-1.421 -0.135,-2.413 -0.404,-2.976 -0.27,-0.564 -0.698,-0.845 -1.285,-0.845 h -15.284 c -0.612,0 -1.053,0.288 -1.323,0.863 -0.269,0.575 -0.403,1.562 -0.403,2.958 0,1.371 0.134,2.339 0.403,2.902 0.27,0.563 0.711,0.845 1.323,0.845 h 15.284 c 0.293,0 0.543,-0.061 0.752,-0.184 C -0.729,3.44 -0.551,3.232 -0.404,2.938 -0.257,2.646 -0.153,2.253 -0.092,1.764 -0.031,1.273 0,0.686 0,0" /></g><g
           transform="translate(289.8535,10.1053)"
           id="g222"><path
             id="path224"
             style="fill:#009ad7;fill-opacity:1;fill-rule:nonzero;stroke:none"
             d="M 0,0 C 0,-0.734 -0.031,-1.354 -0.092,-1.855 -0.153,-2.357 -0.245,-2.773 -0.367,-3.104 -0.49,-3.435 -0.643,-3.674 -0.826,-3.82 -1.01,-3.968 -1.225,-4.041 -1.47,-4.041 h -21.785 c -0.808,0 -1.488,0.239 -2.039,0.717 -0.551,0.477 -0.827,1.255 -0.827,2.332 v 43.168 c 0,0.244 0.08,0.465 0.239,0.661 0.159,0.196 0.423,0.354 0.79,0.477 0.367,0.123 0.863,0.221 1.488,0.294 0.625,0.074 1.402,0.111 2.333,0.111 0.955,0 1.739,-0.037 2.351,-0.111 0.612,-0.073 1.103,-0.171 1.47,-0.294 0.367,-0.123 0.63,-0.281 0.79,-0.477 0.158,-0.196 0.238,-0.417 0.238,-0.661 V 3.932 H -1.47 c 0.245,0 0.46,-0.069 0.644,-0.203 C -0.643,3.594 -0.49,3.374 -0.367,3.067 -0.245,2.762 -0.153,2.357 -0.092,1.855 -0.031,1.354 0,0.735 0,0" /></g><g
           transform="translate(318.6201,23.662)"
           id="g226"><path
             id="path228"
             style="fill:#009ad7;fill-opacity:1;fill-rule:nonzero;stroke:none"
             d="m 0,0 c 0,1.616 -0.129,3.104 -0.386,4.464 -0.258,1.359 -0.692,2.54 -1.304,3.545 -0.613,1.004 -1.427,1.788 -2.443,2.351 -1.016,0.563 -2.297,0.845 -3.84,0.845 -1.372,0 -2.571,-0.251 -3.6,-0.753 -1.029,-0.502 -1.873,-1.237 -2.534,-2.204 -0.662,-0.968 -1.158,-2.131 -1.489,-3.49 -0.33,-1.36 -0.496,-2.909 -0.496,-4.648 0,-1.616 0.135,-3.104 0.404,-4.464 0.27,-1.359 0.705,-2.541 1.305,-3.544 0.6,-1.005 1.414,-1.783 2.443,-2.333 1.029,-0.551 2.301,-0.828 3.821,-0.828 1.395,0 2.608,0.251 3.637,0.754 1.029,0.501 1.874,1.231 2.535,2.186 0.661,0.955 1.15,2.112 1.469,3.472 C -0.16,-3.288 0,-1.739 0,0 m 9.515,0.367 c 0,-2.792 -0.368,-5.34 -1.102,-7.641 -0.735,-2.302 -1.85,-4.287 -3.344,-5.952 -1.494,-1.666 -3.367,-2.952 -5.621,-3.857 -2.253,-0.906 -4.885,-1.359 -7.898,-1.359 -2.915,0 -5.45,0.404 -7.605,1.212 -2.155,0.808 -3.943,1.984 -5.364,3.527 -1.421,1.543 -2.474,3.44 -3.159,5.694 -0.686,2.253 -1.028,4.824 -1.028,7.715 0,2.792 0.373,5.346 1.12,7.66 0.747,2.315 1.867,4.298 3.361,5.951 1.494,1.654 3.362,2.933 5.603,3.84 2.241,0.905 4.868,1.359 7.88,1.359 2.939,0 5.487,-0.398 7.642,-1.194 C 2.154,16.526 3.937,15.356 5.345,13.813 6.753,12.271 7.801,10.372 8.486,8.119 9.172,5.865 9.515,3.282 9.515,0.367" /></g><g
           transform="translate(354.8428,10.5467)"
           id="g230"><path
             id="path232"
             style="fill:#009ad7;fill-opacity:1;fill-rule:nonzero;stroke:none"
             d="m 0,0 c 0,-1.078 -0.067,-1.905 -0.201,-2.48 -0.136,-0.576 -0.313,-0.98 -0.533,-1.212 -0.221,-0.234 -0.545,-0.442 -0.974,-0.625 -0.429,-0.184 -0.931,-0.343 -1.506,-0.478 -0.576,-0.134 -1.2,-0.238 -1.874,-0.312 -0.674,-0.074 -1.353,-0.11 -2.039,-0.11 -1.837,0 -3.429,0.233 -4.775,0.697 -1.348,0.466 -2.462,1.182 -3.344,2.15 -0.882,0.968 -1.531,2.186 -1.947,3.655 -0.416,1.47 -0.624,3.209 -0.624,5.217 v 16.79 h -3.932 c -0.465,0 -0.82,0.287 -1.065,0.863 -0.246,0.575 -0.368,1.536 -0.368,2.884 0,0.71 0.031,1.31 0.092,1.8 0.062,0.49 0.153,0.876 0.276,1.157 0.123,0.281 0.276,0.483 0.46,0.607 0.183,0.122 0.397,0.183 0.642,0.183 h 3.895 v 7.312 c 0,0.244 0.067,0.465 0.202,0.661 0.134,0.195 0.379,0.36 0.734,0.496 0.355,0.134 0.832,0.232 1.433,0.294 0.6,0.06 1.341,0.092 2.222,0.092 0.907,0 1.66,-0.032 2.26,-0.092 0.6,-0.062 1.071,-0.16 1.414,-0.294 0.343,-0.136 0.588,-0.301 0.736,-0.496 0.146,-0.196 0.219,-0.417 0.219,-0.661 v -7.312 h 7.128 c 0.244,0 0.459,-0.061 0.643,-0.183 0.183,-0.124 0.336,-0.326 0.459,-0.607 0.122,-0.281 0.215,-0.667 0.275,-1.157 C -0.03,28.349 0,27.749 0,27.039 0,25.691 -0.122,24.73 -0.367,24.155 -0.612,23.579 -0.968,23.292 -1.433,23.292 H -8.597 V 7.898 c 0,-1.788 0.282,-3.128 0.846,-4.022 0.563,-0.895 1.566,-1.342 3.012,-1.342 0.49,0 0.93,0.043 1.323,0.129 0.392,0.086 0.74,0.184 1.047,0.294 0.306,0.11 0.563,0.208 0.771,0.294 0.208,0.086 0.398,0.129 0.57,0.129 0.147,0 0.288,-0.043 0.423,-0.129 C -0.472,3.165 -0.367,2.994 -0.293,2.736 -0.22,2.479 -0.152,2.131 -0.092,1.689 -0.03,1.249 0,0.685 0,0" /></g><g
           transform="translate(384.6006,16.5712)"
           id="g234"><path
             id="path236"
             style="fill:#009ad7;fill-opacity:1;fill-rule:nonzero;stroke:none"
             d="m 0,0 c 0,-1.861 -0.349,-3.503 -1.047,-4.923 -0.697,-1.421 -1.683,-2.608 -2.957,-3.563 -1.273,-0.955 -2.78,-1.672 -4.518,-2.15 -1.74,-0.477 -3.625,-0.716 -5.659,-0.716 -1.224,0 -2.394,0.092 -3.508,0.276 -1.115,0.183 -2.113,0.417 -2.995,0.698 -0.88,0.281 -1.616,0.569 -2.204,0.863 -0.588,0.294 -1.016,0.57 -1.285,0.827 -0.27,0.257 -0.478,0.661 -0.625,1.212 -0.146,0.551 -0.221,1.365 -0.221,2.443 0,0.711 0.025,1.28 0.075,1.709 0.048,0.428 0.122,0.771 0.219,1.028 0.098,0.257 0.221,0.429 0.368,0.515 0.147,0.085 0.331,0.128 0.551,0.128 0.269,0 0.667,-0.154 1.194,-0.459 0.526,-0.307 1.181,-0.643 1.966,-1.01 0.783,-0.368 1.695,-0.711 2.737,-1.029 1.04,-0.319 2.222,-0.478 3.545,-0.478 0.832,0 1.573,0.086 2.222,0.258 0.649,0.171 1.213,0.416 1.691,0.734 0.477,0.319 0.838,0.722 1.083,1.212 0.245,0.49 0.368,1.053 0.368,1.691 0,0.734 -0.228,1.365 -0.68,1.891 -0.454,0.527 -1.053,0.987 -1.8,1.378 -0.748,0.392 -1.592,0.759 -2.536,1.103 -0.942,0.342 -1.91,0.721 -2.902,1.138 -0.991,0.416 -1.959,0.894 -2.902,1.433 -0.943,0.538 -1.788,1.2 -2.534,1.984 -0.749,0.784 -1.348,1.727 -1.801,2.828 -0.453,1.103 -0.68,2.425 -0.68,3.968 0,1.568 0.307,3.007 0.919,4.318 0.611,1.309 1.493,2.429 2.645,3.361 1.151,0.931 2.553,1.653 4.207,2.167 1.653,0.515 3.508,0.771 5.565,0.771 1.029,0 2.026,-0.073 2.994,-0.219 0.968,-0.148 1.843,-0.331 2.627,-0.552 0.784,-0.22 1.445,-0.459 1.984,-0.716 0.539,-0.257 0.924,-0.477 1.158,-0.661 0.232,-0.184 0.397,-0.368 0.496,-0.552 0.097,-0.183 0.171,-0.403 0.219,-0.661 0.049,-0.257 0.092,-0.575 0.129,-0.955 0.038,-0.38 0.055,-0.852 0.055,-1.414 0,-0.661 -0.017,-1.2 -0.055,-1.617 -0.037,-0.416 -0.097,-0.747 -0.183,-0.991 -0.086,-0.246 -0.202,-0.412 -0.349,-0.497 -0.147,-0.085 -0.319,-0.128 -0.514,-0.128 -0.221,0 -0.564,0.128 -1.029,0.385 -0.466,0.258 -1.048,0.534 -1.745,0.827 -0.698,0.294 -1.507,0.57 -2.425,0.827 -0.919,0.256 -1.966,0.385 -3.141,0.385 -0.833,0 -1.556,-0.086 -2.167,-0.256 -0.614,-0.172 -1.116,-0.417 -1.507,-0.736 -0.392,-0.318 -0.686,-0.692 -0.882,-1.12 -0.196,-0.429 -0.294,-0.888 -0.294,-1.378 0,-0.759 0.232,-1.395 0.698,-1.91 0.465,-0.515 1.077,-0.968 1.837,-1.359 0.759,-0.392 1.622,-0.76 2.59,-1.103 0.968,-0.343 1.947,-0.716 2.94,-1.12 0.992,-0.404 1.97,-0.876 2.938,-1.414 0.968,-0.539 1.831,-1.2 2.591,-1.984 C -1.775,5.902 -1.163,4.966 -0.697,3.876 -0.232,2.786 0,1.494 0,0" /></g><g
           transform="translate(412.8535,27.2987)"
           id="g238"><path
             id="path240"
             style="fill:#009ad7;fill-opacity:1;fill-rule:nonzero;stroke:none"
             d="M 0,0 C 0.073,2.596 -0.447,4.635 -1.562,6.117 -2.677,7.599 -4.396,8.34 -6.724,8.34 -7.899,8.34 -8.922,8.119 -9.791,7.679 -10.661,7.238 -11.384,6.644 -11.959,5.896 -12.534,5.149 -12.976,4.268 -13.281,3.252 -13.588,2.235 -13.765,1.151 -13.813,0 Z M 8.964,-2.645 C 8.964,-3.771 8.713,-4.604 8.211,-5.143 7.708,-5.682 7.017,-5.951 6.135,-5.951 h -19.948 c 0,-1.397 0.165,-2.664 0.495,-3.803 0.331,-1.139 0.857,-2.106 1.58,-2.902 0.722,-0.796 1.653,-1.403 2.792,-1.819 1.138,-0.417 2.504,-0.624 4.096,-0.624 1.617,0 3.037,0.116 4.262,0.349 1.225,0.232 2.283,0.489 3.178,0.771 0.893,0.282 1.635,0.539 2.222,0.772 0.588,0.232 1.066,0.349 1.433,0.349 0.221,0 0.404,-0.043 0.551,-0.128 0.147,-0.086 0.269,-0.24 0.368,-0.46 0.098,-0.22 0.165,-0.533 0.202,-0.937 0.036,-0.404 0.055,-0.912 0.055,-1.524 0,-0.539 -0.013,-0.998 -0.037,-1.378 -0.025,-0.38 -0.062,-0.704 -0.111,-0.974 -0.048,-0.269 -0.122,-0.496 -0.219,-0.679 -0.099,-0.184 -0.227,-0.362 -0.386,-0.533 -0.16,-0.172 -0.595,-0.404 -1.305,-0.698 -0.71,-0.294 -1.616,-0.582 -2.718,-0.863 -1.102,-0.281 -2.364,-0.527 -3.784,-0.735 -1.421,-0.208 -2.939,-0.312 -4.555,-0.312 -2.915,0 -5.469,0.367 -7.66,1.101 -2.193,0.736 -4.024,1.85 -5.493,3.344 -1.469,1.493 -2.566,3.38 -3.288,5.657 -0.722,2.279 -1.084,4.948 -1.084,8.009 0,2.915 0.379,5.542 1.139,7.881 0.759,2.339 1.861,4.322 3.307,5.951 1.444,1.629 3.202,2.872 5.271,3.73 2.069,0.856 4.402,1.285 6.999,1.285 2.743,0 5.088,-0.403 7.035,-1.212 C 2.479,12.858 4.078,11.738 5.327,10.306 6.576,8.873 7.494,7.177 8.082,5.217 8.67,3.258 8.964,1.127 8.964,-1.175 Z" /></g></g></g></g></svg>