<?xml version="1.0" encoding="UTF-8"?>
<svg id="Ebene_2" data-name="Ebene 2" xmlns="http://www.w3.org/2000/svg" viewBox="0 0 1760.22 852.37">
  <defs>
    <style>
      .cls-0 {
        fill: #03c03c;
      }
      .cls-1 {
        fill: #fff;
      }

      .cls-2 {
        fill: #161c1f;
      }
    </style>
  </defs>
  <g id="Ebene_1-2" data-name="Ebene 1">
    <rect class="cls-0" width="634.75" height="634.75" rx="75.57" ry="75.57"/>
    <g>
      <path class="cls-1" d="m303,274.71c-5.89,6.6-12.48,12.29-19.79,17.05-7.31,4.77-15.59,8.42-24.82,10.97-9.24,2.53-19.75,3.81-31.52,3.81-12.79,0-25.38-1.88-37.76-5.64-12.39-3.76-23.4-9.54-33.04-17.36-9.65-7.82-17.42-17.87-23.3-30.15-5.89-12.28-8.83-26.95-8.83-44s2.99-31.06,8.98-43.25c5.99-12.18,13.86-22.28,23.61-30.3,9.74-8.02,20.75-13.95,33.04-17.81,12.28-3.85,24.71-5.79,37.31-5.79,9.94,0,18.98.91,27.1,2.74,8.12,1.83,15.68,4.62,22.69,8.38,7,3.76,13.65,8.63,19.94,14.62,6.29,5.99,12.59,13.15,18.89,21.47l-27.11,15.83c-4.26-5.88-8.48-10.91-12.64-15.07-4.17-4.16-8.63-7.56-13.4-10.21-4.77-2.64-10-4.57-15.68-5.79-5.68-1.22-12.28-1.83-19.79-1.83-9.34,0-18.33,1.37-26.95,4.11-8.64,2.74-16.3,6.91-22.99,12.49-6.7,5.58-12.03,12.59-15.99,21.01-3.96,8.43-5.94,18.22-5.94,29.39,0,11.77,1.98,21.87,5.94,30.3,3.96,8.42,9.24,15.38,15.84,20.86,6.59,5.48,14.21,9.49,22.84,12.03,8.63,2.54,17.71,3.81,27.26,3.81,8.32,0,15.68-.81,22.08-2.43,6.4-1.63,12.08-4.06,17.06-7.31,4.97-3.25,9.54-7.26,13.7-12.03,4.16-4.76,8.17-10.2,12.03-16.29l28.02,14.01c-5.28,8.33-10.86,15.79-16.75,22.39Z"/>
      <path class="cls-1" d="m487,167.32c-3.15-3.35-5.76-6.06-7.83-8.13s-3.84-3.69-5.32-4.87c-1.48-1.18-2.66-2.07-3.55-2.66-.89-.59-1.72-1.08-2.51-1.48-2.17-.98-4.63-1.77-7.39-2.36-2.76-.59-6.21-.89-10.35-.89s-9.01.45-14.04,1.33c-5.02.89-9.81,2.5-16.63,5.08-5.25,2.12-8.5,3.13-13.67,5.27-4.49,1.85-9.03,3.68-13.9,6.95v137.15h-30.15V121.21h30.15v15.07c2.56-1.58,5.12-3.1,7.69-4.58,2.56-1.48,5.22-2.81,7.98-3.99,6.31-2.95,12.96-5.36,19.95-7.24,6.99-1.87,14.53-2.81,22.61-2.81,4.93,0,9.95.4,15.08,1.18,5.12.79,10.24,2.36,15.37,4.73,3.74,1.58,7.44,3.79,11.08,6.64,3.64,2.86,9.02,7.35,16.11,13.45l-20.7,23.64Z"/>
    </g>
    <g>
      <path class="cls-1" d="m269.66,524.09v-122.67c0-5.32-.49-9.91-1.48-13.75-.99-3.84-2.86-7.15-5.62-9.91-2.36-2.37-5.81-4.53-10.35-6.5-4.53-1.98-11.14-2.97-19.8-2.97-10.05,0-21.58,2.37-34.58,7.09-2.56.99-5.42,2.23-8.57,3.7-3.16,1.48-6.31,3.16-9.46,5.02-3.15,1.87-6.25,3.8-9.31,5.77-3.06,1.98-5.86,3.94-8.43,5.91v128.29h-30.15v-181.49h30.45c0,.2-.05,1.28-.15,3.25-.1,1.97-.2,4.43-.29,7.38-.1,2.95-.15,5.62-.15,7.98,4.53-2.75,8.92-5.21,13.15-7.38s8.62-4.14,13.15-5.91c7.88-3.15,15.52-5.43,22.91-6.81,7.39-1.37,14.73-2.07,22.02-2.07,10.64,0,20.29,1.48,28.97,4.44,8.67,2.95,15.96,7.59,21.87,13.89,5.51,5.73,9.55,12.08,12.12,19.07,2.56,6.99,3.84,15.22,3.84,24.68v122.97h-30.15Z"/>
      <path class="cls-1" d="m473.91,524.09v-122.67c0-5.32-.49-9.91-1.48-13.75-.99-3.84-2.86-7.15-5.62-9.91-2.36-2.37-5.81-4.53-10.35-6.5-4.53-1.98-11.14-2.97-19.8-2.97-10.05,0-21.58,2.37-34.58,7.09-2.56.99-5.42,2.23-8.57,3.7-3.16,1.48-6.31,3.16-9.46,5.02-3.15,1.87-6.25,3.8-9.31,5.77-3.06,1.98-5.86,3.94-8.43,5.91v128.29h-30.15v-181.49h30.45c0,.2-.05,1.28-.15,3.25-.1,1.97-.2,4.43-.29,7.38-.1,2.95-.15,5.62-.15,7.98,4.53-2.75,8.92-5.21,13.15-7.38,4.24-2.17,8.62-4.14,13.15-5.91,7.88-3.15,15.52-5.43,22.91-6.81,7.39-1.37,14.73-2.07,22.02-2.07,10.64,0,20.29,1.48,28.97,4.44,8.67,2.95,15.96,7.59,21.87,13.89,5.51,5.73,9.55,12.08,12.12,19.07,2.56,6.99,3.84,15.22,3.84,24.68v122.97h-30.15Z"/>
    </g>
    <g>
      <path class="cls-2" d="m884.7,493.98c-5.57,6.23-11.81,11.61-18.71,16.13-6.91,4.5-14.73,7.95-23.47,10.36-8.73,2.4-18.67,3.59-29.79,3.59-12.09,0-24-1.77-35.7-5.32-11.71-3.55-22.13-9.02-31.24-16.41-9.12-7.38-16.46-16.88-22.02-28.49-5.57-11.61-8.35-25.49-8.35-41.6s2.83-29.37,8.49-40.89c5.66-11.52,13.1-21.06,22.31-28.65,9.22-7.58,19.62-13.2,31.24-16.84,11.61-3.64,23.36-5.47,35.27-5.47,9.4,0,17.94.86,25.62,2.59,7.67,1.73,14.83,4.37,21.45,7.91,6.62,3.55,12.91,8.16,18.85,13.82s11.9,12.43,17.85,20.29l-25.62,14.97c-4.04-5.56-8.02-10.31-11.95-14.24-3.94-3.94-8.16-7.16-12.67-9.65-4.51-2.5-9.45-4.32-14.83-5.48-5.38-1.15-11.61-1.72-18.71-1.72-8.83,0-17.33,1.29-25.48,3.88-8.16,2.59-15.41,6.53-21.74,11.81-6.33,5.28-11.37,11.91-15.11,19.86-3.74,7.97-5.62,17.23-5.62,27.79,0,11.13,1.87,20.68,5.62,28.64,3.74,7.97,8.73,14.54,14.97,19.73,6.23,5.18,13.43,8.97,21.59,11.36,8.15,2.41,16.74,3.61,25.77,3.61,7.87,0,14.83-.77,20.87-2.3,6.05-1.54,11.42-3.84,16.12-6.91,4.71-3.07,9.02-6.86,12.96-11.38,3.93-4.5,7.73-9.65,11.37-15.4l26.49,13.24c-4.99,7.88-10.27,14.93-15.83,21.16Z"/>
      <path class="cls-2" d="m1054.28,390.76c-3.07-3.27-5.62-5.91-7.64-7.91-2-2.02-3.74-3.61-5.18-4.75-1.43-1.16-2.59-2.02-3.45-2.6-.86-.57-1.68-1.04-2.45-1.43-2.12-.96-4.52-1.73-7.2-2.3-2.69-.57-6.05-.86-10.07-.86-4.23,0-8.79.43-13.68,1.29-4.89.86-10.62,2.62-16.68,5.04-6.05,2.25-8.04,3.03-12.83,5.04-4.36,1.83-8.61,3.52-13.53,6.77v133.59h-29.37v-176.78h29.37v14.68c2.49-1.54,4.99-3.02,7.48-4.45,2.49-1.44,5.08-2.75,7.77-3.89,6.14-2.88,12.62-5.23,19.43-7.05,6.82-1.82,14.16-2.73,22.04-2.73,4.79,0,9.68.39,14.68,1.15,4.99.77,9.97,2.3,14.97,4.61,3.64,1.54,7.24,3.7,10.79,6.48,3.55,2.79,8.79,7.15,15.7,13.09l-20.15,23.04Z"/>
      <path class="cls-2" d="m1259.41,466.21c-3.94,10.93-9.93,20.72-18,29.37-8.06,8.63-18.24,15.54-30.51,20.72-12.29,5.18-26.78,7.77-43.48,7.77s-30.62-2.49-42.9-7.48c-12.29-4.99-22.51-11.7-30.65-20.15-8.16-8.45-14.31-18.18-18.43-29.22-4.13-11.04-6.2-22.7-6.2-34.98,0-14.59,2.64-27.6,7.93-39.01,5.27-11.43,12.38-21.02,21.3-28.79,8.93-7.77,19.34-13.72,31.24-17.86,11.9-4.11,24.47-6.18,37.72-6.18s25.81,2.07,37.71,6.18c11.9,4.14,22.31,10.13,31.24,18,8.93,7.88,15.98,17.52,21.16,28.94,5.18,11.42,7.77,24.42,7.77,39.01,0,11.52-1.97,22.74-5.9,33.69Zm-28.51-60.18c-3.36-7.88-8.06-14.54-14.11-20.01-6.04-5.48-13.29-9.65-21.74-12.53-8.45-2.88-17.66-4.31-27.63-4.31s-19.43,1.43-27.79,4.31c-8.34,2.89-15.59,7.05-21.74,12.53-6.14,5.47-10.89,12.13-14.24,20.01-3.37,7.88-5.04,16.7-5.04,26.49,0,8.25,1.33,16.22,4.02,23.9,2.68,7.68,6.86,14.44,12.52,20.29,5.66,5.86,12.86,10.5,21.59,13.97,8.73,3.45,19.04,5.18,30.95,5.18s21.83-1.73,30.37-5.18c8.54-3.46,15.65-8.11,21.31-13.97,5.66-5.86,9.84-12.61,12.52-20.29,2.69-7.68,4.04-15.65,4.04-23.9,0-9.79-1.68-18.61-5.04-26.49Z"/>
      <path class="cls-2" d="m1439.21,522.62v-119.48c0-5.18-.48-9.65-1.44-13.39-.96-3.74-2.79-6.95-5.47-9.65-2.3-2.3-5.66-4.41-10.07-6.33-4.43-1.91-10.86-2.88-19.29-2.88-9.79,0-21.02,2.3-33.69,6.9-2.5.96-5.28,2.16-8.36,3.61s-6.14,3.07-9.2,4.89c-3.08,1.82-6.1,3.7-9.07,5.61-2.98,1.93-5.71,3.84-8.21,5.77v124.95h-29.37v-176.78h29.66c0,.2-.05,1.25-.16,3.18-.09,1.91-.18,4.31-.29,7.2-.09,2.88-.14,5.47-.14,7.77,4.41-2.69,8.68-5.09,12.82-7.2,4.11-2.11,8.38-4.04,12.81-5.77,7.67-3.06,15.11-5.27,22.31-6.61,7.2-1.34,14.34-2.02,21.45-2.02,10.36,0,19.76,1.43,28.21,4.32,8.45,2.88,15.55,7.38,21.31,13.52,5.38,5.57,9.31,11.77,11.81,18.57,2.5,6.81,3.75,14.83,3.75,24.04v119.77h-29.37Z"/>
      <path class="cls-2" d="m1655.41,522.62v-119.48c0-5.18-.48-9.65-1.44-13.39-.96-3.74-2.79-6.95-5.47-9.65-2.3-2.3-5.66-4.41-10.07-6.33-4.43-1.91-10.86-2.88-19.29-2.88-9.79,0-21.02,2.3-33.69,6.9-2.5.96-5.28,2.16-8.36,3.61-3.07,1.44-6.14,3.07-9.2,4.89-3.08,1.82-6.1,3.7-9.07,5.61-2.98,1.93-5.71,3.84-8.21,5.77v124.95h-29.37v-176.78h29.66c0,.2-.05,1.25-.16,3.18-.09,1.91-.18,4.31-.29,7.2-.09,2.88-.14,5.47-.14,7.77,4.41-2.69,8.68-5.09,12.82-7.2,4.11-2.11,8.38-4.04,12.81-5.77,7.67-3.06,15.11-5.27,22.31-6.61,7.2-1.34,14.34-2.02,21.45-2.02,10.36,0,19.76,1.43,28.21,4.32,8.45,2.88,15.55,7.38,21.31,13.52,5.38,5.57,9.31,11.77,11.81,18.57,2.5,6.81,3.75,14.83,3.75,24.04v119.77h-29.37Z"/>
    </g>
  </g>
</svg>