<?xml version="1.0" encoding="UTF-8" standalone="no"?>
<!DOCTYPE svg PUBLIC "-//W3C//DTD SVG 1.1//EN" "http://www.w3.org/Graphics/SVG/1.1/DTD/svg11.dtd">
<svg width="100%" height="100%" viewBox="0 0 1775 592" version="1.1" xmlns="http://www.w3.org/2000/svg" xmlns:xlink="http://www.w3.org/1999/xlink" xml:space="preserve" xmlns:serif="http://www.serif.com/" style="fill-rule:evenodd;clip-rule:evenodd;stroke-linejoin:round;stroke-miterlimit:2;">
    <g transform="matrix(4.16667,0,0,4.16667,0,0)">
        <rect x="133.493" y="61.306" width="153.848" height="4.967" style="fill:rgb(1,180,157);fill-rule:nonzero;"/>
        <path d="M165.541,136.326C151.813,136.326 146.213,128.951 146.213,110.87C146.213,92.586 151.771,85.129 165.399,85.129C170.507,85.129 177.39,86.092 181.622,86.988L181.813,87.028L181.579,92.044L181.322,92.001C177.791,91.4 170.807,90.507 166.04,90.507C154.552,90.507 152.374,97.664 152.374,110.87C152.374,124.187 154.476,130.949 165.969,130.949C168.977,130.949 173.333,130.502 175.929,130.059L175.929,118.854L167.734,118.854L167.734,113.478L181.804,113.478L181.804,134.579L181.614,134.612C179.058,135.057 170.62,136.326 165.541,136.326Z" style="fill:rgb(0,156,215);fill-rule:nonzero;"/>
        <path d="M199.645,113.69L216.136,113.69L209.621,91.005L206.262,91.005L199.645,113.69ZM227.769,135.613L221.802,135.613L217.578,119.137L198.305,119.137L194.082,135.613L188.115,135.613L188.195,135.322L201.78,85.843L214.175,85.843L214.221,86.012L227.769,135.613Z" style="fill:rgb(0,156,215);fill-rule:nonzero;"/>
        <rect x="233.453" y="113.063" width="21.98" height="5.448" style="fill:rgb(0,156,215);fill-rule:nonzero;"/>
        <path d="M294.057,135.613L266.445,135.613L266.445,85.843L272.394,85.843L272.394,130.165L294.057,130.165L294.057,135.613Z" style="fill:rgb(0,156,215);fill-rule:nonzero;"/>
        <path d="M322.976,117.141C322.976,107.236 320.765,103.673 313.212,103.673C305.659,103.673 303.449,107.236 303.449,117.141C303.449,127.26 304.803,131.465 313.212,131.465C321.621,131.465 322.976,127.26 322.976,117.141ZM297.962,117.141C297.962,104.883 301.953,99.041 313.212,99.041C324.542,99.041 328.462,104.883 328.462,117.141C328.462,130.111 325.256,136.096 313.212,136.096C301.241,136.096 297.962,130.111 297.962,117.141Z" style="fill:rgb(0,156,215);fill-rule:nonzero;"/>
        <path d="M372.071,135.583C381.659,135.583 386.125,131.978 386.125,124.237C386.125,117.066 382.454,115.293 373.675,113.818C366.19,112.547 364.676,111.663 364.676,108.559C364.676,104.973 366.978,103.374 372.141,103.374C375.324,103.374 380.82,103.964 384.579,104.512L384.835,104.549L384.991,99.459L384.793,99.425C381.191,98.799 375.641,98.068 371.857,98.068C360.071,98.068 358.798,105.503 358.798,108.701C358.798,115.784 362.53,117.574 370.896,118.906C378.674,120.059 380.247,120.991 380.247,124.451C380.247,128.694 377.815,130.348 371.571,130.348L348.196,130.343C343.779,130.343 343.297,128.384 343.297,120.668L343.297,103.866L354.627,103.866L354.627,98.776L343.297,98.776L343.297,87.873L337.492,87.873L337.492,98.776L332.503,98.776L332.503,103.866L337.492,103.866L337.492,122.377C337.492,132.424 339.954,135.649 347.627,135.649L372.071,135.583Z" style="fill:rgb(0,156,215);fill-rule:nonzero;"/>
        <path d="M398.173,115.273L416.168,115.273C416.123,106.994 413.658,103.761 407.419,103.761C401.171,103.761 398.229,107.421 398.173,115.273ZM406.635,136.326C396.45,136.326 392.294,130.955 392.294,117.783C392.294,105.193 397.383,98.811 407.419,98.811C417.396,98.811 422.043,104.183 422.043,115.717L421.668,120.007L398.175,120.007C398.298,127.876 400.967,131.091 407.347,131.091C411.371,131.091 417.339,130.709 420.369,130.451L420.611,130.431L420.768,135.154L420.563,135.184C417.356,135.643 410.999,136.326 406.635,136.326Z" style="fill:rgb(0,156,215);fill-rule:nonzero;"/>
        <path d="M124.103,135.665L12.191,135.665C7.007,135.665 2.804,131.463 2.804,126.278L2.804,14.367C2.804,9.183 7.007,4.98 12.191,4.98L124.103,4.98C129.287,4.98 133.49,9.183 133.49,14.367L133.49,126.278C133.49,131.463 129.287,135.665 124.103,135.665Z" style="fill:rgb(0,156,215);fill-rule:nonzero;"/>
        <rect x="111.007" y="26.416" width="22.485" height="4.967" style="fill:white;fill-rule:nonzero;"/>
        <path d="M2.804,79.643L74.279,79.643L109.874,66.273L133.493,66.273L133.493,61.306L108.972,61.306L73.376,74.675L2.804,74.675L2.804,79.643Z" style="fill:white;fill-rule:nonzero;"/>
        <path d="M75.39,114.232L30.712,114.232L30.712,109.264L73.787,109.264L109.909,83.251L133.493,83.251L133.493,88.218L111.511,88.218L75.39,114.232Z" style="fill:white;fill-rule:nonzero;"/>
        <path d="M153.787,35.24C157.654,35.24 158.661,31.214 158.661,27.241C158.661,23.267 157.654,19.744 153.787,19.744L148.701,19.744L148.701,35.24L153.787,35.24ZM147.111,18.287L153.787,18.287C158.846,18.287 160.33,22.261 160.33,27.241C160.33,32.273 158.899,36.697 153.787,36.697L147.111,36.697L147.111,18.287Z" style="fill:rgb(35,31,32);fill-rule:nonzero;"/>
        <path d="M170.901,34.684L170.901,29.889L166.583,30.313C164.808,30.498 164.12,31.32 164.12,32.936C164.12,34.631 164.888,35.611 166.345,35.611C167.934,35.611 169.868,35.081 170.901,34.684ZM162.504,32.962C162.504,30.552 163.722,29.36 166.398,29.095L170.901,28.644L170.901,27.399C170.901,25.386 170.027,24.618 168.305,24.618C166.927,24.618 164.649,24.83 163.298,24.989L163.219,23.744C164.464,23.505 166.768,23.188 168.384,23.188C171.245,23.188 172.464,24.592 172.464,27.399L172.464,34.525C172.543,35.293 173.311,35.584 174.185,35.664L174.132,36.935C173.417,36.935 172.808,36.856 172.305,36.644C171.854,36.485 171.457,36.22 171.139,35.876C170.053,36.326 167.96,36.962 166.133,36.962C163.828,36.962 162.504,35.611 162.504,32.962Z" style="fill:rgb(35,31,32);fill-rule:nonzero;"/>
        <path d="M175.485,36.485L175.591,35.108C176.863,35.293 178.929,35.532 179.909,35.532C182.187,35.532 183.538,35.028 183.538,32.936C183.538,31.346 182.743,31.002 179.75,30.525C176.73,30.048 175.3,29.518 175.3,26.949C175.3,24.062 177.684,23.214 179.988,23.214C181.445,23.214 183.511,23.479 184.677,23.664L184.624,25.042C183.405,24.856 181.313,24.618 180.041,24.618C178.399,24.618 176.915,25.068 176.915,26.869C176.915,28.274 177.578,28.671 180.465,29.148C183.829,29.704 185.127,30.313 185.127,32.856C185.127,35.955 183.193,36.962 180.015,36.962C178.823,36.962 176.73,36.697 175.485,36.485Z" style="fill:rgb(35,31,32);fill-rule:nonzero;"/>
        <path d="M201.182,35.24C205.049,35.24 206.056,31.214 206.056,27.241C206.056,23.267 205.049,19.744 201.182,19.744L196.096,19.744L196.096,35.24L201.182,35.24ZM194.506,18.287L201.182,18.287C206.241,18.287 207.725,22.261 207.725,27.241C207.725,32.273 206.294,36.697 201.182,36.697L194.506,36.697L194.506,18.287Z" style="fill:rgb(35,31,32);fill-rule:nonzero;"/>
        <path d="M210.747,23.452L212.31,23.452L212.31,36.697L210.747,36.697L210.747,23.452ZM210.747,18.155L212.31,18.155L212.31,20.141L210.747,20.141L210.747,18.155Z" style="fill:rgb(35,31,32);fill-rule:nonzero;"/>
        <path d="M223.463,27.664C223.463,25.36 222.562,24.486 220.124,24.486C217.873,24.486 216.919,25.36 216.919,27.664C216.919,29.995 217.873,30.79 220.124,30.79C222.562,30.79 223.463,29.995 223.463,27.664ZM224.866,38.843C224.866,36.591 223.913,36.326 221.422,36.326C220.681,36.326 219.277,36.273 218.429,36.22C217.131,37.147 216.734,37.651 216.734,38.79C216.734,40.882 217.476,41.624 220.707,41.624C223.621,41.624 224.866,40.803 224.866,38.843ZM215.171,38.896C215.171,37.28 215.939,36.591 217.343,35.558C216.866,35.267 216.654,34.578 216.654,33.757C216.654,33.412 217.131,32.379 217.502,31.691C216.363,31.214 215.356,30.154 215.356,27.664C215.356,24.459 217.237,23.188 220.124,23.188C221.105,23.188 222.296,23.373 222.906,23.532L226.747,23.452L226.747,24.83L224.099,24.804C224.654,25.333 225.052,26.101 225.052,27.664C225.052,31.055 223.383,32.088 220.045,32.088C219.806,32.088 218.986,32.035 218.694,31.982C218.455,32.565 218.164,33.412 218.164,33.651C218.164,34.79 218.35,34.949 221.529,34.949C225.105,34.949 226.482,35.584 226.482,38.79C226.482,41.757 224.496,42.975 220.681,42.975C216.416,42.975 215.171,41.969 215.171,38.896Z" style="fill:rgb(35,31,32);fill-rule:nonzero;"/>
        <path d="M229.768,23.452L231.332,23.452L231.332,36.697L229.768,36.697L229.768,23.452ZM229.768,18.155L231.332,18.155L231.332,20.141L229.768,20.141L229.768,18.155Z" style="fill:rgb(35,31,32);fill-rule:nonzero;"/>
        <path d="M236.552,32.194L236.552,24.83L234.592,24.83L234.592,23.452L236.552,23.452L236.552,19.294L238.114,19.294L238.114,23.452L242.538,23.452L242.538,24.83L238.114,24.83L238.114,31.399C238.114,34.71 238.326,35.558 240.233,35.558C240.764,35.558 241.929,35.452 242.671,35.399L242.776,36.723C242.035,36.829 240.79,36.962 240.101,36.962C237.478,36.962 236.552,36.008 236.552,32.194Z" style="fill:rgb(35,31,32);fill-rule:nonzero;"/>
        <path d="M252.048,34.684L252.048,29.889L247.73,30.313C245.955,30.498 245.267,31.32 245.267,32.936C245.267,34.631 246.035,35.611 247.492,35.611C249.081,35.611 251.015,35.081 252.048,34.684ZM243.65,32.962C243.65,30.552 244.869,29.36 247.545,29.095L252.048,28.644L252.048,27.399C252.048,25.386 251.174,24.618 249.452,24.618C248.074,24.618 245.797,24.83 244.445,24.989L244.366,23.744C245.611,23.505 247.916,23.188 249.531,23.188C252.393,23.188 253.61,24.592 253.61,27.399L253.61,34.525C253.69,35.293 254.458,35.584 255.332,35.664L255.279,36.935C254.564,36.935 253.955,36.856 253.452,36.644C253.002,36.485 252.604,36.22 252.286,35.876C251.2,36.326 249.107,36.962 247.279,36.962C244.976,36.962 243.65,35.611 243.65,32.962Z" style="fill:rgb(35,31,32);fill-rule:nonzero;"/>
        <rect x="257.877" y="17.545" width="1.564" height="19.152" style="fill:rgb(35,31,32);fill-rule:nonzero;"/>
        <path d="M264.102,23.452L265.666,23.452L265.666,36.697L264.102,36.697L264.102,23.452ZM264.102,18.155L265.666,18.155L265.666,20.141L264.102,20.141L264.102,18.155Z" style="fill:rgb(35,31,32);fill-rule:nonzero;"/>
        <path d="M269.084,36.485L269.189,35.108C270.461,35.293 272.527,35.532 273.508,35.532C275.785,35.532 277.137,35.028 277.137,32.936C277.137,31.346 276.342,31.002 273.349,30.525C270.329,30.048 268.898,29.518 268.898,26.949C268.898,24.062 271.282,23.214 273.587,23.214C275.044,23.214 277.11,23.479 278.275,23.664L278.223,25.042C277.004,24.856 274.911,24.618 273.64,24.618C271.998,24.618 270.514,25.068 270.514,26.869C270.514,28.274 271.177,28.671 274.063,29.148C277.428,29.704 278.725,30.313 278.725,32.856C278.725,35.955 276.792,36.962 273.613,36.962C272.422,36.962 270.329,36.697 269.084,36.485Z" style="fill:rgb(35,31,32);fill-rule:nonzero;"/>
        <path d="M281.933,23.452L283.496,23.452L283.496,36.697L281.933,36.697L281.933,23.452ZM281.933,18.155L283.496,18.155L283.496,20.141L281.933,20.141L281.933,18.155Z" style="fill:rgb(35,31,32);fill-rule:nonzero;"/>
        <path d="M296.502,29.412C296.502,25.836 295.39,24.538 292.9,24.538C290.463,24.538 289.032,25.889 289.006,29.412L296.502,29.412ZM287.417,30.128C287.417,25.015 289.668,23.188 292.9,23.188C296.291,23.188 298.092,25.015 298.092,29.466L298.039,30.71L289.032,30.71C289.032,33.889 289.934,35.558 292.715,35.558C294.118,35.558 296.317,35.426 297.562,35.32L297.615,36.591C296.344,36.75 294.065,36.962 292.556,36.962C288.608,36.935 287.417,34.552 287.417,30.128Z" style="fill:rgb(35,31,32);fill-rule:nonzero;"/>
        <path d="M301.351,23.452L302.915,23.452L302.915,25.36C303.894,24.644 305.934,23.558 307.894,23.188L307.894,24.777C306.041,25.148 303.975,26.101 302.915,26.737L302.915,36.697L301.351,36.697L301.351,23.452Z" style="fill:rgb(35,31,32);fill-rule:nonzero;"/>
        <path d="M309.671,30.34L309.671,23.452L311.233,23.452L311.233,30.313C311.233,34.207 311.604,35.532 314.147,35.532C315.895,35.532 317.352,34.922 318.174,34.419L318.174,23.452L319.736,23.452L319.736,36.697L318.174,36.697L318.174,35.717C317.141,36.3 315.816,36.962 313.803,36.962C310.412,36.962 309.671,35.108 309.671,30.34Z" style="fill:rgb(35,31,32);fill-rule:nonzero;"/>
        <path d="M323.182,23.452L324.745,23.452L324.745,24.432C325.672,23.903 327.526,23.188 329.062,23.188C332.665,23.188 333.46,24.856 333.46,29.73L333.46,36.697L331.896,36.697L331.896,29.81C331.896,25.916 331.473,24.618 328.85,24.618C327.314,24.618 325.619,25.227 324.745,25.731L324.745,36.697L323.182,36.697L323.182,23.452Z" style="fill:rgb(35,31,32);fill-rule:nonzero;"/>
        <path d="M344.481,27.664C344.481,25.36 343.58,24.486 341.143,24.486C338.892,24.486 337.938,25.36 337.938,27.664C337.938,29.995 338.892,30.79 341.143,30.79C343.58,30.79 344.481,29.995 344.481,27.664ZM345.885,38.843C345.885,36.591 344.932,36.326 342.441,36.326C341.7,36.326 340.296,36.273 339.448,36.22C338.15,37.147 337.753,37.651 337.753,38.79C337.753,40.882 338.494,41.624 341.726,41.624C344.641,41.624 345.885,40.803 345.885,38.843ZM336.19,38.896C336.19,37.28 336.958,36.591 338.362,35.558C337.886,35.267 337.674,34.578 337.674,33.757C337.674,33.412 338.15,32.379 338.521,31.691C337.382,31.214 336.375,30.154 336.375,27.664C336.375,24.459 338.256,23.188 341.143,23.188C342.124,23.188 343.315,23.373 343.925,23.532L347.766,23.452L347.766,24.83L345.117,24.804C345.673,25.333 346.07,26.101 346.07,27.664C346.07,31.055 344.401,32.088 341.064,32.088C340.826,32.088 340.005,32.035 339.713,31.982C339.475,32.565 339.184,33.412 339.184,33.651C339.184,34.79 339.369,34.949 342.548,34.949C346.123,34.949 347.501,35.584 347.501,38.79C347.501,41.757 345.515,42.975 341.7,42.975C337.435,42.975 336.19,41.969 336.19,38.896Z" style="fill:rgb(35,31,32);fill-rule:nonzero;"/>
        <path d="M349.701,36.485L349.807,35.108C351.078,35.293 353.144,35.532 354.125,35.532C356.402,35.532 357.754,35.028 357.754,32.936C357.754,31.346 356.959,31.002 353.966,30.525C350.946,30.048 349.516,29.518 349.516,26.949C349.516,24.062 351.899,23.214 354.204,23.214C355.661,23.214 357.727,23.479 358.892,23.664L358.84,25.042C357.621,24.856 355.528,24.618 354.257,24.618C352.615,24.618 351.131,25.068 351.131,26.869C351.131,28.274 351.794,28.671 354.681,29.148C358.045,29.704 359.343,30.313 359.343,32.856C359.343,35.955 357.409,36.962 354.23,36.962C353.039,36.962 350.946,36.697 349.701,36.485Z" style="fill:rgb(35,31,32);fill-rule:nonzero;"/>
        <path d="M370.867,29.889C370.867,26.022 369.676,24.618 367.609,24.618C366.152,24.618 364.457,25.28 363.583,25.81L363.583,35.24C364.139,35.346 365.49,35.558 366.709,35.558C369.808,35.558 370.867,33.969 370.867,29.889ZM362.019,23.452L363.583,23.452L363.583,24.459C364.457,23.929 366.231,23.188 367.767,23.188C371.079,23.188 372.483,25.28 372.483,29.889C372.483,35.002 370.867,36.962 366.762,36.962C365.517,36.962 364.166,36.75 363.583,36.617L363.583,42.657L362.019,42.657L362.019,23.452Z" style="fill:rgb(35,31,32);fill-rule:nonzero;"/>
        <path d="M382.895,34.684L382.895,29.889L378.578,30.313C376.803,30.498 376.114,31.32 376.114,32.936C376.114,34.631 376.883,35.611 378.34,35.611C379.929,35.611 381.862,35.081 382.895,34.684ZM374.498,32.962C374.498,30.552 375.717,29.36 378.392,29.095L382.895,28.644L382.895,27.399C382.895,25.386 382.021,24.618 380.3,24.618C378.922,24.618 376.644,24.83 375.293,24.989L375.214,23.744C376.459,23.505 378.764,23.188 380.379,23.188C383.24,23.188 384.458,24.592 384.458,27.399L384.458,34.525C384.538,35.293 385.306,35.584 386.18,35.664L386.127,36.935C385.412,36.935 384.803,36.856 384.3,36.644C383.85,36.485 383.452,36.22 383.134,35.876C382.048,36.326 379.955,36.962 378.127,36.962C375.823,36.962 374.498,35.611 374.498,32.962Z" style="fill:rgb(35,31,32);fill-rule:nonzero;"/>
        <path d="M388.565,17.545L390.129,17.545L390.129,28.962L392.38,28.909L396.46,23.452L398.261,23.452L393.758,29.518L398.473,36.697L396.672,36.697L392.406,30.286L390.129,30.34L390.129,36.697L388.565,36.697L388.565,17.545Z" style="fill:rgb(35,31,32);fill-rule:nonzero;"/>
        <path d="M408.619,29.412C408.619,25.836 407.507,24.538 405.017,24.538C402.58,24.538 401.149,25.889 401.123,29.412L408.619,29.412ZM399.534,30.128C399.534,25.015 401.785,23.188 405.017,23.188C408.408,23.188 410.209,25.015 410.209,29.466L410.156,30.71L401.149,30.71C401.149,33.889 402.051,35.558 404.832,35.558C406.235,35.558 408.434,35.426 409.68,35.32L409.732,36.591C408.461,36.75 406.183,36.962 404.673,36.962C400.725,36.935 399.534,34.552 399.534,30.128Z" style="fill:rgb(35,31,32);fill-rule:nonzero;"/>
        <path d="M414.079,32.194L414.079,24.83L412.119,24.83L412.119,23.452L414.079,23.452L414.079,19.294L415.642,19.294L415.642,23.452L420.065,23.452L420.065,24.83L415.642,24.83L415.642,31.399C415.642,34.71 415.853,35.558 417.761,35.558C418.291,35.558 419.456,35.452 420.198,35.399L420.304,36.723C419.562,36.829 418.317,36.962 417.629,36.962C415.006,36.962 414.079,36.008 414.079,32.194Z" style="fill:rgb(35,31,32);fill-rule:nonzero;"/>
        <path d="M304.632,69.124L304.632,59.615C303.969,59.509 302.354,59.324 301.373,59.324C298.194,59.324 297.347,61.31 297.347,64.966C297.347,69.654 299.016,70.264 300.552,70.264C302.035,70.264 303.758,69.601 304.632,69.124ZM295.731,64.966C295.731,60.33 297.135,57.92 301.294,57.92C302.406,57.92 303.942,58.132 304.632,58.264L304.632,52.277L306.194,52.277L306.194,71.429L304.658,71.429L304.658,70.449C303.758,70.979 301.956,71.694 300.394,71.694C298.194,71.694 295.731,70.952 295.731,64.966Z" style="fill:rgb(35,31,32);fill-rule:nonzero;"/>
        <path d="M318.143,64.144C318.143,60.568 317.03,59.27 314.541,59.27C312.104,59.27 310.673,60.621 310.647,64.144L318.143,64.144ZM309.058,64.86C309.058,59.747 311.309,57.92 314.541,57.92C317.932,57.92 319.732,59.747 319.732,64.198L319.68,65.442L310.673,65.442C310.673,68.621 311.574,70.29 314.355,70.29C315.759,70.29 317.958,70.158 319.203,70.052L319.256,71.323C317.984,71.482 315.706,71.694 314.196,71.694C310.249,71.667 309.058,69.284 309.058,64.86Z" style="fill:rgb(35,31,32);fill-rule:nonzero;"/>
        <path d="M322.462,58.184L324.025,58.184L324.025,60.092C325.005,59.376 327.045,58.29 329.005,57.92L329.005,59.509C327.15,59.88 325.085,60.833 324.025,61.469L324.025,71.429L322.462,71.429L322.462,58.184Z" style="fill:rgb(35,31,32);fill-rule:nonzero;"/>
        <path d="M336.424,69.31L346.543,55.058L346.543,54.476L336.424,54.476L336.424,53.019L348.345,53.019L348.345,55.191L338.252,69.442L338.252,69.999L348.345,69.999L348.345,71.455L336.424,71.455L336.424,69.31Z" style="fill:rgb(35,31,32);fill-rule:nonzero;"/>
        <path d="M350.518,65.072L350.518,58.184L352.08,58.184L352.08,65.045C352.08,68.939 352.451,70.264 354.994,70.264C356.742,70.264 358.199,69.654 359.021,69.151L359.021,58.184L360.583,58.184L360.583,71.429L359.021,71.429L359.021,70.449C357.987,71.032 356.663,71.694 354.649,71.694C351.259,71.694 350.518,69.84 350.518,65.072Z" style="fill:rgb(35,31,32);fill-rule:nonzero;"/>
        <path d="M364.559,52.277L366.122,52.277L366.122,63.694L368.373,63.641L372.453,58.184L374.254,58.184L369.751,64.25L374.466,71.429L372.665,71.429L368.4,65.018L366.122,65.072L366.122,71.429L364.559,71.429L364.559,52.277Z" style="fill:rgb(35,31,32);fill-rule:nonzero;"/>
        <path d="M376.878,65.072L376.878,58.184L378.44,58.184L378.44,65.045C378.44,68.939 378.812,70.264 381.355,70.264C383.103,70.264 384.56,69.654 385.381,69.151L385.381,58.184L386.943,58.184L386.943,71.429L385.381,71.429L385.381,70.449C384.348,71.032 383.023,71.694 381.01,71.694C377.619,71.694 376.878,69.84 376.878,65.072Z" style="fill:rgb(35,31,32);fill-rule:nonzero;"/>
        <path d="M390.919,58.184L392.482,58.184L392.482,59.164C393.409,58.635 395.264,57.92 396.8,57.92C400.402,57.92 401.197,59.588 401.197,64.462L401.197,71.429L399.635,71.429L399.635,64.542C399.635,60.648 399.211,59.35 396.588,59.35C395.052,59.35 393.356,59.959 392.482,60.463L392.482,71.429L390.919,71.429L390.919,58.184Z" style="fill:rgb(35,31,32);fill-rule:nonzero;"/>
        <path d="M405.569,59.562L403.848,59.562L403.848,58.184L405.569,58.184L405.569,56.807C405.569,52.993 406.522,52.039 409.065,52.039C409.729,52.039 410.92,52.118 411.635,52.171L411.635,53.496C410.946,53.47 409.834,53.443 409.277,53.443C407.689,53.443 407.132,54.105 407.132,56.833L407.132,58.184L411.158,58.184L411.158,59.562L407.132,59.562L407.132,71.429L405.569,71.429L405.569,59.562Z" style="fill:rgb(35,31,32);fill-rule:nonzero;"/>
        <path d="M414.339,66.926L414.339,59.562L412.379,59.562L412.379,58.184L414.339,58.184L414.339,54.026L415.901,54.026L415.901,58.184L420.325,58.184L420.325,59.562L415.901,59.562L415.901,66.131C415.901,69.442 416.113,70.29 418.021,70.29C418.551,70.29 419.716,70.184 420.458,70.131L420.564,71.455C419.822,71.561 418.577,71.694 417.889,71.694C415.266,71.694 414.339,70.74 414.339,66.926Z" style="fill:rgb(35,31,32);fill-rule:nonzero;"/>
        <path d="M45.364,111.969C45.364,120.966 38.07,128.26 29.073,128.26C20.076,128.26 12.782,120.966 12.782,111.969C12.782,102.971 20.076,95.678 29.073,95.678C38.07,95.678 45.364,102.971 45.364,111.969Z" style="fill:white;fill-rule:nonzero;"/>
        <path d="M53.543,26.398L20.036,26.398C13.184,26.398 7.022,29.407 2.802,34.174L2.804,44.045C5.094,36.706 11.953,31.365 20.036,31.365L53.37,31.365L38.279,45.559L41.667,49.197L63.514,28.886L41.667,8.57L38.279,12.208L53.543,26.398Z" style="fill:white;fill-rule:nonzero;"/>
        <path d="M42.16,111.969C42.16,119.197 36.301,125.056 29.073,125.056C21.845,125.056 15.986,119.197 15.986,111.969C15.986,104.741 21.845,98.882 29.073,98.882C36.301,98.882 42.16,104.741 42.16,111.969Z" style="fill:rgb(1,180,157);fill-rule:nonzero;"/>
        <path d="M35.728,111.969C35.728,115.644 32.749,118.624 29.073,118.624C25.397,118.624 22.418,115.644 22.418,111.969C22.418,108.293 25.397,105.313 29.073,105.313C32.749,105.313 35.728,108.293 35.728,111.969Z" style="fill:rgb(35,31,32);fill-rule:nonzero;"/>
        <path d="M112.015,29.551C112.015,38.549 104.722,45.843 95.724,45.843C86.726,45.843 79.433,38.549 79.433,29.551C79.433,20.554 86.726,13.26 95.724,13.26C104.722,13.26 112.015,20.554 112.015,29.551Z" style="fill:white;fill-rule:nonzero;"/>
        <path d="M108.811,29.551C108.811,36.779 102.952,42.638 95.724,42.638C88.496,42.638 82.637,36.779 82.637,29.551C82.637,22.324 88.496,16.464 95.724,16.464C102.952,16.464 108.811,22.324 108.811,29.551Z" style="fill:rgb(1,180,157);fill-rule:nonzero;"/>
        <path d="M102.38,29.551C102.38,33.227 99.4,36.207 95.724,36.207C92.048,36.207 89.068,33.227 89.068,29.551C89.068,25.876 92.048,22.896 95.724,22.896C99.4,22.896 102.38,25.876 102.38,29.551Z" style="fill:rgb(35,31,32);fill-rule:nonzero;"/>
    </g>
</svg>
